<svg width="22" height="22" viewBox="0 0 22 22" fill="none" xmlns="http://www.w3.org/2000/svg">
<path d="M8.59363 10.0057C8.69817 9.94535 8.78497 9.85854 8.84531 9.75399C8.90565 9.64945 8.93741 9.53086 8.93738 9.41016V3.22266C8.93677 3.11305 8.90996 3.00517 8.85918 2.90803C8.8084 2.81089 8.73514 2.7273 8.64549 2.66423C8.55584 2.60115 8.45242 2.56043 8.34383 2.54545C8.23525 2.53048 8.12466 2.54168 8.02129 2.57812C6.01463 3.28832 4.32711 4.69102 3.26208 6.53406C2.19706 8.3771 1.82438 10.5396 2.21105 12.6328C2.2311 12.7411 2.27684 12.8429 2.34443 12.9298C2.41203 13.0167 2.4995 13.0861 2.59949 13.1321C2.6896 13.1742 2.78791 13.196 2.88738 13.1957C3.00805 13.1958 3.1266 13.164 3.23113 13.1037L8.59363 10.0057ZM7.56238 4.26422V9.01312L3.44769 11.3876C3.43738 11.2578 3.43738 11.1272 3.43738 11C3.4386 9.6064 3.82435 8.24017 4.55216 7.05172C5.27996 5.86327 6.3216 4.89871 7.56238 4.26422ZM18.7635 6.57594C18.7557 6.56047 18.748 6.54414 18.7386 6.52867C18.7291 6.5132 18.7214 6.50031 18.7119 6.48656C17.9239 5.14061 16.7976 4.02418 15.4447 3.2481C14.0919 2.47202 12.5595 2.0633 10.9999 2.0625C10.8175 2.0625 10.6427 2.13493 10.5137 2.26386C10.3848 2.3928 10.3124 2.56766 10.3124 2.75V10.6416L3.53965 14.5862C3.46105 14.6317 3.39227 14.6924 3.33727 14.7647C3.28227 14.837 3.24214 14.9195 3.21921 15.0074C3.19627 15.0953 3.19099 15.1869 3.20365 15.2768C3.21632 15.3668 3.24669 15.4533 3.29301 15.5315C4.28668 17.2236 5.8096 18.5416 7.62677 19.2822C9.44393 20.0228 11.4543 20.1448 13.3477 19.6293C15.2411 19.1138 16.9122 17.9895 18.1031 16.43C19.294 14.8704 19.9386 12.9623 19.9374 11C19.9394 9.44807 19.5346 7.92272 18.7635 6.57594ZM11.6874 3.46844C12.7778 3.5688 13.8334 3.90462 14.7813 4.4527C15.7292 5.00078 16.5469 5.74807 17.1779 6.64297L11.6874 9.8407V3.46844ZM10.9999 18.5625C9.79969 18.5594 8.61729 18.2722 7.54945 17.7243C6.48161 17.1764 5.55868 16.3835 4.85621 15.4103L11.3359 11.6368L11.3548 11.6248L17.8663 7.83234C18.3978 8.98455 18.6308 10.252 18.5439 11.5179C18.457 12.7838 18.053 14.0074 17.3691 15.0762C16.6852 16.145 15.7433 17.0245 14.6303 17.6337C13.5172 18.243 12.2688 18.5624 10.9999 18.5625Z" fill="white"/>
</svg>
