<svg width="22" height="22" viewBox="0 0 22 22" fill="none" xmlns="http://www.w3.org/2000/svg">
<path d="M19.9375 10.3125H19.2208C19.0558 8.36983 18.2091 6.5481 16.8305 5.16948C15.4519 3.79086 13.6302 2.9442 11.6875 2.77922V2.0625C11.6875 1.88016 11.6151 1.7053 11.4861 1.57636C11.3572 1.44743 11.1823 1.375 11 1.375C10.8177 1.375 10.6428 1.44743 10.5139 1.57636C10.3849 1.7053 10.3125 1.88016 10.3125 2.0625V2.77922C8.36983 2.9442 6.5481 3.79086 5.16948 5.16948C3.79086 6.5481 2.9442 8.36983 2.77922 10.3125H2.0625C1.88016 10.3125 1.7053 10.3849 1.57636 10.5139C1.44743 10.6428 1.375 10.8177 1.375 11C1.375 11.1823 1.44743 11.3572 1.57636 11.4861C1.7053 11.6151 1.88016 11.6875 2.0625 11.6875H2.77922C2.9442 13.6302 3.79086 15.4519 5.16948 16.8305C6.5481 18.2091 8.36983 19.0558 10.3125 19.2208V19.9375C10.3125 20.1198 10.3849 20.2947 10.5139 20.4236C10.6428 20.5526 10.8177 20.625 11 20.625C11.1823 20.625 11.3572 20.5526 11.4861 20.4236C11.6151 20.2947 11.6875 20.1198 11.6875 19.9375V19.2208C13.6302 19.0558 15.4519 18.2091 16.8305 16.8305C18.2091 15.4519 19.0558 13.6302 19.2208 11.6875H19.9375C20.1198 11.6875 20.2947 11.6151 20.4236 11.4861C20.5526 11.3572 20.625 11.1823 20.625 11C20.625 10.8177 20.5526 10.6428 20.4236 10.5139C20.2947 10.3849 20.1198 10.3125 19.9375 10.3125ZM11.6875 17.8406V17.1875C11.6875 17.0052 11.6151 16.8303 11.4861 16.7014C11.3572 16.5724 11.1823 16.5 11 16.5C10.8177 16.5 10.6428 16.5724 10.5139 16.7014C10.3849 16.8303 10.3125 17.0052 10.3125 17.1875V17.8406C8.73544 17.6797 7.26215 16.9797 6.14121 15.8588C5.02027 14.7378 4.32029 13.2646 4.15938 11.6875H4.8125C4.99484 11.6875 5.1697 11.6151 5.29864 11.4861C5.42757 11.3572 5.5 11.1823 5.5 11C5.5 10.8177 5.42757 10.6428 5.29864 10.5139C5.1697 10.3849 4.99484 10.3125 4.8125 10.3125H4.15938C4.32029 8.73544 5.02027 7.26215 6.14121 6.14121C7.26215 5.02027 8.73544 4.32029 10.3125 4.15938V4.8125C10.3125 4.99484 10.3849 5.1697 10.5139 5.29864C10.6428 5.42757 10.8177 5.5 11 5.5C11.1823 5.5 11.3572 5.42757 11.4861 5.29864C11.6151 5.1697 11.6875 4.99484 11.6875 4.8125V4.15938C13.2646 4.32029 14.7378 5.02027 15.8588 6.14121C16.9797 7.26215 17.6797 8.73544 17.8406 10.3125H17.1875C17.0052 10.3125 16.8303 10.3849 16.7014 10.5139C16.5724 10.6428 16.5 10.8177 16.5 11C16.5 11.1823 16.5724 11.3572 16.7014 11.4861C16.8303 11.6151 17.0052 11.6875 17.1875 11.6875H17.8406C17.6797 13.2646 16.9797 14.7378 15.8588 15.8588C14.7378 16.9797 13.2646 17.6797 11.6875 17.8406ZM11 7.5625C10.3201 7.5625 9.65552 7.76411 9.09023 8.14182C8.52493 8.51954 8.08434 9.05641 7.82416 9.68453C7.56399 10.3126 7.49591 11.0038 7.62855 11.6706C7.76119 12.3374 8.08858 12.9499 8.56932 13.4307C9.05006 13.9114 9.66257 14.2388 10.3294 14.3714C10.9962 14.5041 11.6874 14.436 12.3155 14.1758C12.9436 13.9157 13.4805 13.4751 13.8582 12.9098C14.2359 12.3445 14.4375 11.6799 14.4375 11C14.4375 10.0883 14.0753 9.21398 13.4307 8.56932C12.786 7.92466 11.9117 7.5625 11 7.5625ZM11 13.0625C10.5921 13.0625 10.1933 12.9415 9.85414 12.7149C9.51496 12.4883 9.2506 12.1662 9.0945 11.7893C8.93839 11.4124 8.89755 10.9977 8.97713 10.5976C9.05671 10.1975 9.25315 9.83004 9.54159 9.54159C9.83004 9.25315 10.1975 9.05671 10.5976 8.97713C10.9977 8.89755 11.4124 8.93839 11.7893 9.0945C12.1662 9.2506 12.4883 9.51496 12.7149 9.85414C12.9415 10.1933 13.0625 10.5921 13.0625 11C13.0625 11.547 12.8452 12.0716 12.4584 12.4584C12.0716 12.8452 11.547 13.0625 11 13.0625Z" fill="#1C1C1C"/>
</svg>
