<svg width="22" height="22" viewBox="0 0 22 22" fill="none" xmlns="http://www.w3.org/2000/svg">
<path d="M11 6.875C10.1842 6.875 9.38667 7.11693 8.70831 7.57019C8.02996 8.02345 7.50125 8.66769 7.18904 9.42143C6.87683 10.1752 6.79514 11.0046 6.9543 11.8048C7.11347 12.6049 7.50633 13.3399 8.08323 13.9168C8.66012 14.4937 9.39512 14.8866 10.1953 15.0457C10.9955 15.2049 11.8249 15.1232 12.5786 14.811C13.3324 14.4988 13.9766 13.9701 14.4299 13.2917C14.8831 12.6134 15.125 11.8159 15.125 11C15.1239 9.90634 14.6889 8.85779 13.9156 8.08444C13.1423 7.3111 12.0937 6.87614 11 6.875ZM11 13.75C10.4561 13.75 9.92446 13.5887 9.47222 13.2865C9.01999 12.9844 8.66751 12.5549 8.45937 12.0524C8.25123 11.5499 8.19677 10.997 8.30288 10.4635C8.40899 9.93006 8.6709 9.44005 9.0555 9.05546C9.44009 8.67087 9.93009 8.40895 10.4635 8.30284C10.997 8.19673 11.5499 8.25119 12.0524 8.45934C12.5549 8.66748 12.9844 9.01995 13.2866 9.47219C13.5888 9.92442 13.75 10.4561 13.75 11C13.75 11.7293 13.4603 12.4288 12.9446 12.9445C12.4289 13.4603 11.7294 13.75 11 13.75ZM20.448 9.21336C20.4289 9.11655 20.3891 9.02499 20.3314 8.94492C20.2737 8.86484 20.1995 8.79813 20.1137 8.7493L17.5502 7.28836L17.5399 4.39914C17.5396 4.29964 17.5177 4.20139 17.4757 4.11118C17.4337 4.02097 17.3726 3.94095 17.2967 3.87664C16.3668 3.09006 15.2959 2.48726 14.1411 2.10032C14.0501 2.06953 13.9537 2.05814 13.8581 2.06687C13.7625 2.07561 13.6698 2.10427 13.5859 2.15102L11 3.59649L8.4116 2.14844C8.32769 2.10143 8.23484 2.07255 8.13907 2.06367C8.04329 2.05479 7.94672 2.0661 7.85559 2.09688C6.70157 2.48666 5.63195 3.09175 4.7034 3.88008C4.62758 3.94429 4.56657 4.02417 4.52459 4.11423C4.4826 4.20428 4.46063 4.30236 4.4602 4.40172L4.44731 7.29352L1.88379 8.75446C1.79803 8.80328 1.72378 8.87 1.6661 8.95008C1.60841 9.03015 1.56864 9.12171 1.54949 9.21852C1.31488 10.3975 1.31488 11.6111 1.54949 12.7901C1.56864 12.8869 1.60841 12.9785 1.6661 13.0585C1.72378 13.1386 1.79803 13.2053 1.88379 13.2541L4.44731 14.7151L4.45762 17.6043C4.45793 17.7038 4.47984 17.8021 4.52183 17.8923C4.56382 17.9825 4.62489 18.0625 4.70082 18.1268C5.63073 18.9134 6.70158 19.5162 7.85645 19.9031C7.94739 19.9339 8.04378 19.9453 8.1394 19.9366C8.23501 19.9278 8.32774 19.8992 8.4116 19.8524L11 18.4035L13.5885 19.8516C13.6909 19.9086 13.8064 19.9382 13.9236 19.9375C13.9987 19.9375 14.0733 19.9253 14.1445 19.9014C15.2984 19.5122 16.368 18.9076 17.2967 18.1199C17.3725 18.0557 17.4335 17.9758 17.4755 17.8858C17.5175 17.7957 17.5394 17.6976 17.5399 17.5983L17.5528 14.7065L20.1163 13.2456C20.2021 13.1967 20.2763 13.13 20.334 13.0499C20.3917 12.9699 20.4314 12.8783 20.4506 12.7815C20.6839 11.6035 20.683 10.391 20.448 9.21336ZM19.1589 12.2134L16.7037 13.6099C16.5961 13.6711 16.5071 13.7602 16.4459 13.8677C16.3961 13.9537 16.3436 14.0448 16.2904 14.1307C16.2222 14.2391 16.1858 14.3645 16.1855 14.4925L16.1726 17.264C15.5127 17.7822 14.7775 18.1967 13.9924 18.4929L11.5157 17.1127C11.4128 17.0558 11.2972 17.0263 11.1797 17.0268H11.1633C11.0593 17.0268 10.9545 17.0268 10.8505 17.0268C10.7275 17.0237 10.6059 17.0534 10.4982 17.1127L8.01973 18.4963C7.23298 18.2024 6.49573 17.79 5.83348 17.2734L5.82403 14.5063C5.8236 14.378 5.78728 14.2523 5.71918 14.1436C5.6659 14.0577 5.61348 13.9717 5.56449 13.8806C5.50376 13.7714 5.4147 13.6805 5.30668 13.6177L2.84887 12.2177C2.72168 11.4132 2.72168 10.5937 2.84887 9.78914L5.29981 8.39008C5.40738 8.32891 5.49645 8.23984 5.55762 8.13227C5.60746 8.04633 5.65989 7.95524 5.71317 7.8693C5.78137 7.76093 5.8177 7.63555 5.81801 7.5075L5.8309 4.73602C6.49084 4.21777 7.22606 3.80336 8.01114 3.50711L10.4844 4.88727C10.5921 4.94694 10.7137 4.97661 10.8368 4.97321C10.9407 4.97321 11.0456 4.97321 11.1496 4.97321C11.2726 4.97628 11.3942 4.94662 11.5019 4.88727L13.9804 3.50368C14.7671 3.79765 15.5043 4.21003 16.1666 4.72657L16.1761 7.49375C16.1765 7.62205 16.2128 7.74768 16.2809 7.85641C16.3342 7.94235 16.3866 8.02829 16.4356 8.11938C16.4963 8.22862 16.5854 8.31946 16.6934 8.38235L19.1512 9.78227C19.2801 10.5874 19.2815 11.4078 19.1555 12.2134H19.1589Z" fill="#1C1C1C"/>
</svg>
