<svg width="31" height="35" viewBox="0 0 31 35" fill="none" xmlns="http://www.w3.org/2000/svg">
<path d="M15.5479 1V2.15425" stroke="#111F43" stroke-width="1.5" stroke-miterlimit="10" stroke-linecap="round" stroke-linejoin="round"/>
<path d="M26.1028 5.17876L25.2433 6.03826" stroke="#111F43" stroke-width="1.5" stroke-miterlimit="10" stroke-linecap="round" stroke-linejoin="round"/>
<path d="M30.0958 15.7345H28.9415" stroke="#111F43" stroke-width="1.5" stroke-miterlimit="10" stroke-linecap="round" stroke-linejoin="round"/>
<path d="M1 15.7345H2.15425" stroke="#111F43" stroke-width="1.5" stroke-miterlimit="10" stroke-linecap="round" stroke-linejoin="round"/>
<path d="M4.99121 5.17871L5.85072 6.03822" stroke="#111F43" stroke-width="1.5" stroke-miterlimit="10" stroke-linecap="round" stroke-linejoin="round"/>
<path d="M17.7248 34H13.371C12.431 34 11.6689 33.238 11.6689 32.298V28.9341H19.4268V32.298C19.4268 33.238 18.6648 34 17.7248 34Z" stroke="#111F43" stroke-width="1.5" stroke-miterlimit="10" stroke-linecap="round" stroke-linejoin="round"/>
<path d="M25.178 15.8042C25.178 10.4863 20.8669 6.17517 15.5489 6.17517C10.231 6.17517 5.91992 10.4863 5.91992 15.8042C5.91992 19.1566 7.63353 22.1084 10.2322 23.8328L10.2574 28.2551C10.2605 28.631 10.5661 28.9341 10.9421 28.9341H20.1934C20.5715 28.9341 20.878 28.6276 20.878 28.2495V23.8246C23.4698 22.0992 25.178 19.1514 25.178 15.8042Z" stroke="#111F43" stroke-width="1.5" stroke-miterlimit="10" stroke-linecap="round" stroke-linejoin="round"/>
<path d="M10.9531 16.0546L14.1611 19.2625L19.9063 13.5172" stroke="#111F43" stroke-width="1.5" stroke-miterlimit="10" stroke-linecap="round" stroke-linejoin="round"/>
</svg>
