<svg width="31" height="36" viewBox="0 0 31 36" fill="none" xmlns="http://www.w3.org/2000/svg">
<path d="M15.5479 1.5V2.65425" stroke="#F79333" stroke-width="1.5" stroke-miterlimit="10" stroke-linecap="round" stroke-linejoin="round"/>
<path d="M26.1029 5.67877L25.2434 6.53828" stroke="#F79333" stroke-width="1.5" stroke-miterlimit="10" stroke-linecap="round" stroke-linejoin="round"/>
<path d="M30.0959 16.2345H28.9417" stroke="#F79333" stroke-width="1.5" stroke-miterlimit="10" stroke-linecap="round" stroke-linejoin="round"/>
<path d="M1 16.2345H2.15425" stroke="#F79333" stroke-width="1.5" stroke-miterlimit="10" stroke-linecap="round" stroke-linejoin="round"/>
<path d="M4.99121 5.67871L5.85072 6.53822" stroke="#F79333" stroke-width="1.5" stroke-miterlimit="10" stroke-linecap="round" stroke-linejoin="round"/>
<path d="M17.7248 34.5H13.371C12.431 34.5 11.6689 33.738 11.6689 32.798V29.4341H19.4268V32.798C19.4268 33.738 18.6648 34.5 17.7248 34.5Z" stroke="#F79333" stroke-width="1.5" stroke-miterlimit="10" stroke-linecap="round" stroke-linejoin="round"/>
<path d="M25.178 16.3042C25.178 10.9863 20.8669 6.67517 15.5489 6.67517C10.231 6.67517 5.91992 10.9863 5.91992 16.3042C5.91992 19.6566 7.63353 22.6084 10.2322 24.3328L10.2574 28.7551C10.2605 29.131 10.5661 29.4341 10.9421 29.4341H20.1934C20.5715 29.4341 20.878 29.1276 20.878 28.7495V24.3246C23.4698 22.5992 25.178 19.6514 25.178 16.3042Z" stroke="#F79333" stroke-width="1.5" stroke-miterlimit="10" stroke-linecap="round" stroke-linejoin="round"/>
<path d="M15.5049 11.7414V16.5207L18.6911 19.7069" stroke="#F79333" stroke-width="1.5" stroke-miterlimit="10" stroke-linecap="round" stroke-linejoin="round"/>
</svg>
