<svg width="36" height="31" viewBox="0 0 36 31" fill="none" xmlns="http://www.w3.org/2000/svg">
<path d="M17.8254 11.959C20.6352 11.959 22.9129 9.65213 22.9129 6.80639C22.9129 3.96066 20.6352 1.65373 17.8254 1.65373C15.0156 1.65373 12.7378 3.96066 12.7378 6.80639C12.7378 9.65213 15.0156 11.959 17.8254 11.959Z" stroke="#31312F" stroke-width="1.5" stroke-miterlimit="10"/>
<path d="M28.6437 14.6962C30.6487 14.6962 32.2742 13.05 32.2742 11.0192C32.2742 8.98852 30.6487 7.3423 28.6437 7.3423C26.6386 7.3423 25.0132 8.98852 25.0132 11.0192C25.0132 13.05 26.6386 14.6962 28.6437 14.6962Z" stroke="#31312F" stroke-width="1.5" stroke-miterlimit="10"/>
<path d="M6.9259 14.6962C8.93097 14.6962 10.5564 13.05 10.5564 11.0192C10.5564 8.98852 8.93097 7.3423 6.9259 7.3423C4.92084 7.3423 3.29541 8.98852 3.29541 11.0192C3.29541 13.05 4.92084 14.6962 6.9259 14.6962Z" stroke="#31312F" stroke-width="1.5" stroke-miterlimit="10"/>
<path d="M14.5696 14.6138H21.0084C23.2063 14.6138 24.9971 16.4275 24.9971 18.6535V29.3463H10.5809V18.6535C10.5809 16.4275 12.3718 14.6138 14.5696 14.6138Z" stroke="#31312F" stroke-width="1.5" stroke-miterlimit="10"/>
<path d="M24.5004 17.4003H30.2391C32.6323 17.4003 34.5778 19.3706 34.5778 21.7945V27.3593C34.5778 28.4558 33.6987 29.3462 32.6161 29.3462H24.8504" stroke="#31312F" stroke-width="1.5" stroke-miterlimit="10"/>
<path d="M10.6866 29.3462H2.96165C1.87901 29.3462 0.999878 28.4558 0.999878 27.3593V21.7945C0.999878 19.3706 2.94537 17.4003 5.33856 17.4003H11.0773" stroke="#31312F" stroke-width="1.5" stroke-miterlimit="10"/>
</svg>
