<svg width="32" height="31" viewBox="0 0 32 31" fill="none" xmlns="http://www.w3.org/2000/svg">
<path d="M9.44746 20.2926C9.47874 18.8514 8.33579 17.6578 6.89462 17.6265C5.45345 17.5952 4.25979 18.7382 4.22851 20.1793C4.19723 21.6205 5.34018 22.8142 6.78135 22.8455C8.22252 22.8767 9.41618 21.7338 9.44746 20.2926Z" stroke="#C0718D" stroke-width="1.5" stroke-miterlimit="10" stroke-linecap="round" stroke-linejoin="round"/>
<path d="M27.2417 22.0821C28.2609 21.0629 28.2609 19.4103 27.2417 18.3911C26.2224 17.3718 24.5699 17.3718 23.5506 18.3911C22.5313 19.4103 22.5313 21.0629 23.5506 22.0821C24.5699 23.1014 26.2224 23.1014 27.2417 22.0821Z" stroke="#C0718D" stroke-width="1.5" stroke-miterlimit="10" stroke-linecap="round" stroke-linejoin="round"/>
<path d="M18.7201 20.4217C18.8223 18.9838 17.7395 17.7354 16.3017 17.6332C14.8638 17.531 13.6154 18.6137 13.5132 20.0516C13.411 21.4894 14.4937 22.7379 15.9316 22.8401C17.3695 22.9423 18.6179 21.8595 18.7201 20.4217Z" stroke="#C0718D" stroke-width="1.5" stroke-miterlimit="10" stroke-linecap="round" stroke-linejoin="round"/>
<path d="M10.8962 28.0667C10.8962 27.2039 11.1056 26.39 11.4762 25.6728C10.6083 23.9941 8.85627 22.8467 6.8362 22.8467C3.95329 22.8467 1.61621 25.1836 1.61621 28.0667V30H10.8962V28.0667Z" stroke="#C0718D" stroke-width="1.5" stroke-miterlimit="10" stroke-linecap="round" stroke-linejoin="round"/>
<path d="M20.7559 25.6728C21.1265 26.3901 21.3359 27.204 21.3359 28.0667V30H30.6158V28.0667C30.6158 25.1836 28.2788 22.8467 25.3958 22.8467C23.3758 22.8467 21.6238 23.9941 20.7559 25.6728Z" stroke="#C0718D" stroke-width="1.5" stroke-miterlimit="10" stroke-linecap="round" stroke-linejoin="round"/>
<path d="M21.3374 28.0667C21.3374 25.1836 19.0004 22.8467 16.1174 22.8467C13.2345 22.8467 10.8975 25.1836 10.8975 28.0667V30H21.3374V28.0667Z" stroke="#C0718D" stroke-width="1.5" stroke-miterlimit="10" stroke-linecap="round" stroke-linejoin="round"/>
<path d="M6.83691 4.39299L16.1138 7.78599L25.3969 4.39299L16.1169 1L6.83691 4.39299Z" stroke="#C0718D" stroke-width="1.5" stroke-miterlimit="10" stroke-linecap="round" stroke-linejoin="round"/>
<path d="M20.9505 6.01849V11.7992L16.1142 13.5667L11.2839 11.8001V6.01849L16.1172 7.78605L20.9505 6.01849Z" stroke="#C0718D" stroke-width="1.5" stroke-miterlimit="10" stroke-linecap="round" stroke-linejoin="round"/>
<path d="M25.3975 4.39294V10.6666" stroke="#C0718D" stroke-width="1.5" stroke-miterlimit="10" stroke-linecap="round" stroke-linejoin="round"/>
</svg>
