<svg width="125" height="52" viewBox="0 0 125 52" fill="none" xmlns="http://www.w3.org/2000/svg">
<path d="M14.6161 26.1944L14.6565 25.9046L14.9866 25.9449C15.0123 25.9743 15.1114 26.0146 15.2765 26.0697L15.5223 26.154V26.3191C15.658 26.3191 15.7571 26.2641 15.8121 26.154C15.8671 26.044 15.9625 25.9889 16.1019 25.9889H16.1423C16.1166 26.099 16.0946 26.2311 16.0799 26.3815C16.0652 26.5319 15.9919 26.609 15.8525 26.609H15.7717C15.7717 26.774 15.702 26.8584 15.5663 26.8584H15.4819V26.5686C15.2618 26.5686 15.0637 26.5539 14.8839 26.5282C14.7042 26.5026 14.5207 26.4879 14.3263 26.4879C14.3263 26.3228 14.2786 26.2201 14.1832 26.1797C14.0878 26.1394 14.0511 26.0513 14.0805 25.9119L14.0401 26.2017C13.875 26.2568 13.5852 26.3521 13.1743 26.4916C12.7634 26.631 12.4883 26.697 12.3488 26.697C12.3488 26.4769 12.2241 26.3668 11.9783 26.3668C11.7582 26.3668 11.5381 26.4072 11.3179 26.4916C11.0978 26.5723 10.8777 26.6163 10.6576 26.6163C10.5475 26.6163 10.5072 26.5906 10.5328 26.5356C10.3421 26.5356 10.2247 26.5099 10.1806 26.4549C10.1403 26.3998 10.0632 26.3044 9.95319 26.165C9.76241 26.4695 9.59732 26.5906 9.45791 26.5356C9.3185 26.4805 9.15341 26.5209 8.96264 26.6603C9.01767 26.7447 9.08004 26.8181 9.14974 26.8878C9.21945 26.9575 9.25247 27.0455 9.25247 27.1556V27.3207C9.1424 27.4307 9.08737 27.5115 9.08737 27.5665C9.08737 27.6215 9.10939 27.6692 9.14974 27.7096C9.1901 27.7499 9.21211 27.8123 9.21211 27.8967C9.21211 28.0361 9.18276 28.1168 9.1314 28.1425C9.07637 28.1718 8.98098 28.1828 8.84157 28.1828C9.11672 28.1828 9.32217 28.1975 9.46158 28.2232L9.3772 28.8432H9.17175C8.95163 28.8432 8.83423 28.8909 8.81956 28.9863C8.80488 29.0817 8.77187 29.2137 8.71684 29.3788C8.88193 29.3788 9.03968 29.3862 9.1901 29.4008C9.34051 29.4155 9.49827 29.4375 9.66336 29.4632L9.623 29.7934L9.00666 29.709C9.1424 29.709 9.2598 29.7494 9.35519 29.8337C9.45058 29.9181 9.54229 29.9988 9.623 30.0795V30.1639C9.623 30.3033 9.64869 30.4244 9.70738 30.5345C9.76241 30.6445 9.7881 30.7693 9.7881 30.905V30.9894C9.59732 30.9894 9.49827 31.0848 9.49827 31.2792C9.5533 31.3893 9.60099 31.47 9.64135 31.525C9.6817 31.58 9.70372 31.6754 9.70372 31.8148V32.1854H9.61934C9.67437 32.2147 9.74407 32.2477 9.82478 32.2881C9.90916 32.3285 9.94952 32.3908 9.94952 32.4752V32.5156L9.61934 32.8054V32.8898C9.61934 33.0549 9.71472 33.1356 9.90916 33.1356C9.82478 33.1906 9.7294 33.253 9.61934 33.3227C9.50927 33.3924 9.39921 33.4107 9.28915 33.385C9.45424 33.4144 9.60466 33.4621 9.74407 33.5281C9.87981 33.5978 10.0192 33.6712 10.155 33.7556H9.86514V33.7959C9.83579 33.8803 9.87248 33.906 9.96786 33.8803C10.0632 33.8546 10.1109 33.8803 10.1109 33.961C10.1109 34.1518 10.0559 34.3462 9.94585 34.537C9.83579 34.7315 9.78076 34.9222 9.78076 35.113C9.78076 35.2231 9.87614 35.2781 10.0706 35.2781C9.98621 35.3625 9.91283 35.4505 9.84313 35.5459C9.77342 35.6413 9.7404 35.744 9.7404 35.8541C9.87614 35.8834 9.96052 35.9164 9.98621 35.9568C10.0119 35.9972 10.0119 36.0889 9.98621 36.2246C10.0706 36.2796 10.1109 36.375 10.1109 36.5144C10.1109 36.6245 10.0559 36.7199 9.94585 36.8043C9.80644 36.7786 9.75508 36.8336 9.78076 36.9694C9.80644 37.1088 9.7404 37.2445 9.57531 37.3803C9.79543 37.4096 9.99354 37.538 10.1733 37.7728C10.3531 38.0076 10.5035 38.2828 10.6282 38.5983C10.753 38.9138 10.8557 39.2256 10.9364 39.5265C11.0208 39.8273 11.1015 40.0621 11.1822 40.2272L11.428 40.2675C11.5637 40.1575 11.7178 40.1171 11.8829 40.1428C12.048 40.1721 12.1984 40.1831 12.3378 40.1831C12.5029 40.1831 12.613 40.1575 12.668 40.1024H12.9579C12.8478 40.1024 12.7451 40.0951 12.6497 40.0804C12.5543 40.0658 12.4626 40.0584 12.3819 40.0584L12.4662 39.4384C12.6313 39.5485 12.7964 39.6035 12.9615 39.6035C13.1266 39.6035 13.299 39.5631 13.4751 39.4788C13.6549 39.3944 13.8127 39.3283 13.9484 39.2733C14.0034 38.9725 14.2236 38.6973 14.6088 38.4479C14.994 38.202 15.3352 38.0773 15.6397 38.0773C15.7791 38.0773 15.8745 38.1067 15.9295 38.1617C15.9845 38.2167 16.0652 38.2461 16.1753 38.2461L16.2157 37.9966C16.1606 37.9416 16.0763 37.8535 15.9699 37.7288C15.8598 37.6041 15.7791 37.5417 15.7241 37.5417L15.6837 37.6261V37.2959C15.7938 37.2152 15.8965 37.1234 15.9919 37.0281C16.0873 36.9327 16.2047 36.8556 16.3441 36.8006C16.3147 36.8006 16.267 36.7933 16.201 36.7786C16.1313 36.7639 16.0983 36.7456 16.0983 36.7162L16.3441 36.4704L16.3844 36.1806C16.4651 36.0962 16.5422 36.0559 16.6119 36.0559H16.8797C16.9641 36.0559 17.0044 36.0008 17.0044 35.8908C16.9494 35.8908 16.909 35.8761 16.8797 35.8504C16.8797 35.7403 16.8247 35.6596 16.7146 35.6046C16.7953 35.5496 16.8724 35.4945 16.9421 35.4395C17.0118 35.3845 17.0998 35.3588 17.2099 35.3588C17.4007 35.3588 17.5547 35.3735 17.6648 35.3992V35.4395C17.6648 35.4945 17.7272 35.5716 17.8519 35.667C17.9766 35.7624 18.1197 35.8577 18.2848 35.9568C18.4499 36.0522 18.6077 36.1439 18.7581 36.2246C18.9085 36.3053 19.0112 36.364 19.0662 36.3897L18.7361 36.6795C19.0112 36.7346 19.2313 36.8116 19.3964 36.907C19.5615 37.0024 19.7266 37.1601 19.8917 37.3803C19.6716 37.4903 19.5689 37.6004 19.5835 37.7104C19.5982 37.8205 19.6055 37.9709 19.6055 38.1654C19.6055 38.2497 19.5762 38.3708 19.5212 38.5359H19.191L19.4808 38.8661C19.3414 38.8661 19.1726 38.9358 18.9672 39.0715C18.7617 39.2109 18.604 39.321 18.4939 39.4017C18.604 39.4017 18.6737 39.4567 18.6994 39.5668C18.7251 39.6769 18.7397 39.7723 18.7397 39.8566V40.0217C18.6847 40.0217 18.6517 40.0144 18.637 39.9997C18.6223 39.985 18.5893 39.9777 18.5343 39.9777C18.4499 39.9777 18.3839 40.0034 18.3288 40.0584C18.2738 40.1134 18.2188 40.1685 18.1637 40.2235L18.1234 40.5537L17.1732 40.4693L17.1328 40.7995L16.843 40.7591L17.1328 41.049H17.0925C16.9531 41.049 16.8577 41.0967 16.8027 41.192C16.7476 41.2874 16.6522 41.3351 16.5128 41.3351C16.5385 41.2251 16.5679 41.1223 16.5935 41.0269C16.6192 40.9316 16.6339 40.8398 16.6339 40.7591C16.6339 40.6784 16.5935 40.6087 16.5092 40.5537C16.4284 40.4987 16.3587 40.4436 16.3037 40.3886C16.2744 40.6894 16.2083 40.9536 16.0983 41.1737C15.9882 41.3938 15.9075 41.6286 15.8525 41.8744C15.8231 42.0395 15.7497 42.1276 15.625 42.1422C15.5003 42.1569 15.3719 42.1496 15.2324 42.1202L15.1921 42.41L14.9023 42.3697C14.9023 42.5091 14.9426 42.6155 15.027 42.6999C14.8362 42.6999 14.7042 42.6852 14.6345 42.6595C14.5647 42.6338 14.5244 42.5825 14.5097 42.5164C14.495 42.4467 14.484 42.3807 14.4694 42.311C14.4547 42.2413 14.407 42.1679 14.3263 42.0835C14.1612 42.1936 14.0585 42.3183 14.0181 42.4541C13.9778 42.5935 13.9411 42.7439 13.9154 42.909H14.2456C14.2162 43.0741 14.1979 43.2098 14.1832 43.3199C14.1685 43.4299 14.0511 43.485 13.831 43.485C13.7466 43.485 13.6806 43.4703 13.6256 43.4446C13.5962 43.3346 13.6109 43.1438 13.6659 42.8686C13.5559 42.8686 13.4531 42.8613 13.3577 42.8466C13.2624 42.832 13.1596 42.8246 13.0496 42.8246C12.9102 42.9053 12.8001 42.9493 12.7194 42.9493C12.5543 42.9493 12.4039 42.9237 12.2645 42.8686C12.1251 42.8136 11.9893 42.7733 11.8536 42.7439C11.7729 42.7989 11.7142 42.8466 11.6885 42.887C11.6591 42.9273 11.6335 42.9677 11.6041 43.0117C11.5748 43.0521 11.5344 43.0888 11.4794 43.1144C11.4243 43.1401 11.329 43.1841 11.1895 43.2392C11.1345 43.1548 11.0098 43.0667 10.819 42.9714C10.6246 42.876 10.3934 42.7512 10.1183 42.6008C9.84313 42.4504 9.56064 42.2633 9.27448 42.0432C8.98465 41.8231 8.73151 41.5626 8.51139 41.2581C8.56642 40.9572 8.59577 40.8178 8.59577 40.8472C8.59577 40.8765 8.69115 40.8215 8.8856 40.6821L8.84524 40.9719C8.76086 40.9719 8.7205 41.0013 8.7205 41.0563C8.7205 41.1113 8.73518 41.159 8.76086 41.1994C8.78654 41.2397 8.80122 41.2764 8.80122 41.3021C8.8269 41.2764 8.87826 41.2324 8.94429 41.1774C9.014 41.1223 9.03234 41.0673 9.00666 41.0123C9.06169 40.9866 9.13507 40.9793 9.23412 40.9903C9.32951 41.0049 9.40655 41.0123 9.46158 41.0123L9.50194 40.7224C9.22678 40.6674 9.02134 40.6527 8.88193 40.6821C8.88193 40.4913 8.86725 40.3739 8.84157 40.3299C8.81589 40.2895 8.74618 40.1978 8.63612 40.0621C8.58109 40.1171 8.51872 40.1795 8.44902 40.2492C8.37931 40.3189 8.30594 40.3519 8.22156 40.3519C8.03079 40.3519 7.90605 40.2235 7.85102 39.9594C7.79599 39.6989 7.78132 39.4971 7.81067 39.3614L7.19066 39.277C7.27504 39.1963 7.41811 39.1192 7.62356 39.0495C7.82901 38.9798 7.94641 38.8771 7.97576 38.7413C7.83635 38.6056 7.69327 38.5432 7.54285 38.5542C7.39243 38.5689 7.24569 38.4919 7.10994 38.3268C7.24569 38.2167 7.3374 38.1397 7.37776 38.0993C7.41811 38.059 7.44013 37.9416 7.44013 37.7508C7.35575 37.7251 7.26036 37.7104 7.1503 37.7104H6.82012C6.87515 37.6554 6.92284 37.5674 6.9632 37.4426C7.00355 37.3179 7.02556 37.2152 7.02556 37.1345C7.02556 37.0794 7.00355 37.0391 6.9632 37.0097C6.92284 36.984 6.90083 36.9253 6.90083 36.8446C7.04024 36.7346 7.15397 36.6318 7.25302 36.5365C7.35208 36.4411 7.46581 36.3494 7.60155 36.2686C7.43646 36.243 7.33373 36.2136 7.29338 36.1879C7.25302 36.1622 7.16131 36.0779 7.02556 35.9421H7.35575C7.54652 35.9421 7.64557 35.8577 7.64557 35.6963H7.31539C7.26036 35.6119 7.20533 35.5386 7.1503 35.4689C7.09527 35.3992 7.06592 35.3111 7.06592 35.2011C7.06592 35.1754 7.07326 35.146 7.08793 35.1167C7.10261 35.091 7.10994 35.0616 7.10994 35.036H7.39977L6.77976 34.9956C6.80544 34.9406 6.84213 34.8232 6.88248 34.6434C6.92284 34.4636 6.97053 34.3903 7.02556 34.4159V34.3316C7.02556 34.2472 7.01089 34.1738 6.98521 34.1041C6.95953 34.0344 6.94485 33.961 6.94485 33.8766V33.7519C7.05491 33.6969 7.10994 33.6272 7.10994 33.5465C7.10994 33.4658 7.09527 33.3814 7.06959 33.3007C7.04391 33.2163 7.02923 33.1356 7.02923 33.0512V32.8861C7.08426 32.8861 7.16864 32.9081 7.2787 32.9485C7.38877 32.9888 7.45847 33.0365 7.48415 33.0915C7.50983 33.0659 7.53918 33.0439 7.56486 33.0292C7.59054 33.0145 7.61989 32.9962 7.64557 32.9668C7.61989 32.9118 7.57587 32.8568 7.52084 32.8017C7.46581 32.7467 7.41078 32.732 7.35575 32.7614L7.31539 32.5963C7.48048 32.6256 7.59054 32.6586 7.64557 32.699C7.7006 32.7394 7.7483 32.7797 7.78865 32.8237C7.82901 32.8641 7.8767 32.9081 7.93173 32.9485C7.98676 32.9888 8.08215 33.0108 8.22156 33.0108V32.6807C7.92073 32.4899 7.65291 32.2734 7.41811 32.0423C7.18332 31.8075 6.95586 31.569 6.7394 31.3196L6.77976 31.0297H6.94485C7.05491 31.0297 7.10994 30.9344 7.10994 30.7399L6.82012 30.6996C6.82012 30.5088 6.9155 30.4391 7.10994 30.4941C7.22 30.384 7.30805 30.307 7.37776 30.2666C7.44746 30.2263 7.55019 30.2043 7.68593 30.2043H7.76664C7.71161 30.4538 7.58687 30.6445 7.3961 30.7803H7.72629C7.72629 30.6445 7.77398 30.5528 7.86936 30.5124C7.96475 30.4721 8.02712 30.384 8.05647 30.2446L7.43646 30.2043L7.19066 29.8741C7.08059 29.8484 6.97787 29.8337 6.88248 29.8337H6.61467L6.65502 29.5036L6.94485 29.2137C6.80544 29.2137 6.71005 29.166 6.65502 29.0707C6.59999 28.9753 6.50461 28.9129 6.3652 28.8835C6.58532 28.9129 6.78343 28.9312 6.9632 28.9459C7.14296 28.9606 7.34107 28.9826 7.56119 29.0083L7.93173 28.7185L7.60155 28.3883C7.46214 28.3626 7.31906 28.3406 7.16864 28.3259C7.01823 28.3112 6.86047 28.3039 6.69538 28.3039L6.73574 27.9737L7.31172 28.0141L7.35208 27.7242L7.68226 27.7646C7.54285 27.7389 7.44746 27.6765 7.39243 27.5775C7.3374 27.4821 7.24202 27.4344 7.10261 27.4344C6.99254 27.5445 6.89716 27.5995 6.81278 27.5995C6.75775 27.5995 6.70272 27.5702 6.64769 27.5151C6.59266 27.4601 6.53763 27.4051 6.4826 27.35C6.34318 27.3243 6.2478 27.262 6.19277 27.1629C6.13774 27.0675 6.02768 27.0198 5.86259 27.0198C5.69749 27.0198 5.61678 27.1042 5.61678 27.2656C5.2866 27.1006 5.02612 26.9648 4.83168 26.8548C4.64091 26.7447 4.42079 26.5392 4.17131 26.2347C4.06125 26.3191 3.92551 26.3925 3.76042 26.4622C3.59533 26.5319 3.51462 26.6346 3.51462 26.7704C3.29449 26.7447 3.15508 26.73 3.10372 26.73C3.05236 26.73 3.00834 26.7153 2.97899 26.6897C2.94964 26.664 2.92396 26.6273 2.89827 26.5869C2.86892 26.5466 2.78821 26.4842 2.6488 26.3998C2.6488 26.4549 2.64147 26.5172 2.62679 26.5869C2.61212 26.6566 2.60478 26.719 2.60478 26.774C2.60478 26.9135 2.62679 27.0162 2.66715 27.0822C2.7075 27.1519 2.76987 27.2253 2.85425 27.3097C2.8249 27.3647 2.78454 27.4124 2.72951 27.4528C2.67448 27.4931 2.61945 27.4894 2.56442 27.4307V27.5958C2.42501 27.5665 2.32229 27.5004 2.25625 27.3904C2.18655 27.2803 2.08382 27.2253 1.94808 27.2253L1.45281 26.6053L1.08227 26.8548C1.02724 26.7997 0.972206 26.7374 0.917175 26.6677C0.862145 26.5979 0.832795 26.5246 0.832795 26.4402C0.832795 26.3558 0.84747 26.2898 0.873151 26.2347H1.16298C1.32807 26.2347 1.51884 26.2641 1.73896 26.3191L1.77932 25.9889C1.66926 25.8495 1.58855 25.7688 1.52985 25.7431C1.47482 25.7175 1.36476 25.7028 1.19967 25.7028L1.15931 25.9486L0.539299 25.9082L0.869482 26.2384L0.539299 26.1981C0.539299 26.3888 0.484269 26.4879 0.374208 26.4879H0.209116L0.289827 25.5817H0C0.0256809 25.556 0.0770427 25.512 0.143079 25.457C0.209116 25.4019 0.260478 25.3873 0.286159 25.4166C0.31184 25.3909 0.326514 25.3469 0.326514 25.2919L1.23268 25.3763V25.2919C1.23268 25.0167 1.17765 24.837 1.06759 24.7563C0.957531 24.6719 0.832795 24.5508 0.697053 24.3857C0.722734 24.1949 0.737409 23.9528 0.737409 23.663C0.737409 23.3732 0.862145 23.2301 1.10795 23.2301C1.24369 23.2301 1.35375 23.2448 1.43813 23.2704C1.51884 23.3548 1.6289 23.3952 1.76831 23.3952C1.87838 23.3952 1.9811 23.3878 2.07649 23.3732C2.17187 23.3585 2.2746 23.3511 2.38466 23.3511C2.49472 23.3511 2.6378 23.3915 2.81756 23.4759C2.99733 23.5603 3.08538 23.6667 3.08538 23.8061C3.08538 23.8611 3.05603 23.9015 3.00467 23.9308C2.94964 23.9601 2.89461 23.9858 2.83958 24.0152C2.92396 24.0152 3.00467 24.0225 3.08538 24.0372C3.16976 24.0519 3.25047 24.0592 3.33118 24.0592C3.41189 24.0592 3.45592 23.9638 3.45592 23.7694C3.40089 23.7143 3.37154 23.6593 3.37154 23.6043C3.42657 23.6043 3.45592 23.5493 3.45592 23.4392H3.7861C3.7861 23.6336 3.88149 23.7547 4.07593 23.8097V23.4795L3.7861 23.4392C3.87048 23.4135 3.96587 23.3768 4.07593 23.3365C4.18599 23.2961 4.28137 23.2741 4.36576 23.2741C4.55653 23.2741 4.68126 23.2888 4.73629 23.3145V23.4392C4.73629 23.5493 4.82067 23.6043 4.98577 23.6043H5.31595C5.56175 23.2191 5.8369 23.0283 6.14141 23.0283C6.27715 23.0283 6.4239 23.0356 6.57431 23.0503C6.72473 23.065 6.8568 23.0723 6.96686 23.0723C7.10261 23.0723 7.16497 22.9549 7.15397 22.7201C7.13929 22.4853 7.18699 22.3423 7.29705 22.2872L7.62723 22.0414C7.65291 22.0157 7.64191 21.9607 7.58687 21.8763C7.53184 21.7919 7.46214 21.6966 7.38143 21.5865C7.29705 21.4764 7.21634 21.359 7.13562 21.238C7.05124 21.1132 7.01089 21.0105 7.01089 20.9298V20.8051C7.12095 20.8051 7.21634 20.8124 7.30072 20.8271C7.3851 20.8418 7.48048 20.8491 7.59054 20.8491C7.59054 20.7941 7.58321 20.7317 7.56853 20.662C7.55386 20.5923 7.54652 20.5299 7.54652 20.4749C7.54652 20.3391 7.65658 20.2694 7.8767 20.2694H8.61778L8.65814 19.9796H8.73885C8.87826 19.9796 9.02134 19.9576 9.17175 19.9172C9.32217 19.8769 9.46525 19.8292 9.60466 19.7742C9.63034 19.7998 9.67437 19.8439 9.7294 19.8989C9.78443 19.9539 9.83946 19.9686 9.89449 19.9393V20.1043C9.70372 20.1043 9.57898 20.119 9.52395 20.1447C9.46892 20.1741 9.37353 20.2401 9.23412 20.3501C9.36986 20.3758 9.50194 20.3978 9.62667 20.4125C9.75141 20.4272 9.81378 20.5152 9.81378 20.6803C9.81378 20.7904 9.80644 20.8931 9.79176 20.9885C9.77709 21.0839 9.76975 21.1866 9.76975 21.2967C9.43957 21.2416 9.2011 21.1646 9.04702 21.0692C8.8966 20.9738 8.74985 20.9115 8.61411 20.8821L8.57376 21.1719L9.19377 21.2526C9.11305 21.3077 9.13874 21.4434 9.27448 21.6635C9.41022 21.8837 9.47993 22.0488 9.47993 22.1588C9.56431 22.2689 9.58265 22.3716 9.54229 22.467C9.50194 22.5624 9.53496 22.6651 9.64502 22.7752C9.83579 22.7201 10.0302 22.6798 10.221 22.6504C10.4118 22.6247 10.6062 22.6101 10.797 22.6101C10.9621 22.6101 11.1272 22.6174 11.2923 22.6321C11.4574 22.6468 11.6224 22.6651 11.7875 22.6944L11.7472 22.9843H11.5417C11.4574 22.9843 11.417 23.021 11.417 23.087V23.2741C11.5527 23.3035 11.7068 23.3218 11.8719 23.3365C12.037 23.3511 12.1874 23.3585 12.3268 23.3585V23.0283L12.9468 23.109L12.9065 23.3988H12.6167L12.5763 23.6887L12.9065 23.729C13.0422 23.5933 13.1963 23.5162 13.3614 23.5016C13.5265 23.4869 13.6769 23.4135 13.8163 23.2741C14.1465 23.2484 14.5097 23.2521 14.9096 23.2961C15.3095 23.3365 15.5773 23.4392 15.713 23.6043L15.8378 23.729H15.713C15.658 23.729 15.6287 23.7437 15.6287 23.7694L15.713 23.8941L16.0432 23.6483L16.0836 23.3585C16.2744 23.3585 16.4688 23.3658 16.6596 23.3805C16.8503 23.3952 17.0448 23.4025 17.2356 23.4025L17.5657 23.6923C17.6758 23.718 17.8556 23.7327 18.1014 23.7327C18.1564 23.8428 18.2298 23.9785 18.3288 24.1436C18.4242 24.3087 18.5416 24.4041 18.681 24.4334L18.6407 24.7232L18.3105 24.6829C18.3362 24.7673 18.2958 24.8076 18.1858 24.8076C18.0207 24.8076 17.8482 24.7819 17.6685 24.7269C17.4887 24.6719 17.3053 24.6315 17.1108 24.6022C17.1365 24.7122 17.1255 24.9067 17.0705 25.1782C17.1512 25.1231 17.2282 25.0681 17.2979 25.0131C17.3676 24.958 17.4557 24.9324 17.5657 24.9324H17.7308C17.8409 25.0718 18.006 25.2369 18.2261 25.4276C18.4462 25.6184 18.5416 25.7835 18.5159 25.9229V25.9633L18.4756 25.9229C18.2298 25.9229 18.0647 26.066 17.9803 26.3558C17.8959 26.6456 17.8409 26.8841 17.8152 27.0785C17.5951 27.0529 17.3823 27.0235 17.1769 26.9978C16.9714 26.9722 16.799 26.8474 16.6632 26.6273L15.0967 27.2033L15.1371 26.8731L14.6014 26.2127L14.6161 26.1944ZM0.432907 24.382C0.377876 24.382 0.315508 24.3747 0.245803 24.36C0.176098 24.3454 0.143079 24.2977 0.143079 24.217C0.143079 24.1619 0.157754 24.1069 0.183435 24.0519L0.429238 24.382H0.432907ZM2.32963 26.3595L2.08382 26.0293H1.99944C1.88938 26.0293 1.80867 26.1247 1.75364 26.3191L2.32963 26.3595ZM3.19544 27.0602L3.48527 27.1006C3.45592 27.1262 3.41556 27.1629 3.36053 27.2033C3.3055 27.2436 3.25047 27.2656 3.19544 27.2656V27.0602ZM5.09216 26.3191L4.80233 25.9889C4.77298 26.044 4.7473 26.099 4.71795 26.154C4.6886 26.2091 4.67759 26.2641 4.67759 26.3191C4.67759 26.3448 4.69227 26.3595 4.71795 26.3595C4.77298 26.3595 4.83535 26.3521 4.90505 26.3375C4.97476 26.3228 5.03713 26.3155 5.09216 26.3155M6.45325 27.926L6.74307 27.9664L6.70272 28.2966L6.41289 28.2562L6.45325 27.926ZM6.94852 25.9082L6.98888 25.578H6.82379C6.71372 25.578 6.65869 25.6734 6.65869 25.8679L6.94852 25.9082ZM10.4962 17.085C10.4668 17.3895 10.4264 17.6977 10.3714 18.0132C10.3164 18.3287 10.1917 18.6112 10.0009 18.857L9.6707 19.1872L9.38087 19.1468C9.38087 19.2569 9.37353 19.3523 9.35886 19.4366C9.34418 19.5174 9.33685 19.6164 9.33685 19.7265C9.09104 19.7008 8.91861 19.6788 8.82323 19.6641C8.72784 19.6494 8.59577 19.5614 8.43068 19.3963C8.43068 19.5357 8.47103 19.5761 8.55541 19.521L8.43068 19.6458L7.72995 19.6054C7.92073 19.4697 7.99777 19.3156 7.95741 19.1505C7.91706 18.9854 7.99043 18.8203 8.18487 18.6552C8.12984 18.6002 8.10783 18.5451 8.12251 18.4901C8.13718 18.4351 8.1702 18.3801 8.22523 18.325C8.28026 18.27 8.34263 18.2076 8.41233 18.1379C8.48204 18.0682 8.51506 17.9948 8.51506 17.9105C8.32428 17.8848 8.22523 17.7747 8.22523 17.5803V17.4152H8.18487C8.07481 17.4152 7.9941 17.3492 7.93907 17.2097L8.55541 17.2941L8.59577 16.9639L8.26558 16.9236C8.15552 16.8135 8.07848 16.7365 8.03813 16.6961C7.99777 16.6558 7.89505 16.6338 7.72995 16.6338L9.54596 16.7585C9.79176 16.8979 9.93851 16.9859 9.97887 17.0263C10.0192 17.0667 10.1917 17.0887 10.4962 17.0887M8.01978 32.0496V31.8038L7.72995 31.7635L8.01978 32.0533V32.0496ZM8.10416 29.9071H8.14452C8.33529 29.9621 8.43435 29.8814 8.43435 29.6576C8.26925 29.632 8.17387 29.6026 8.14452 29.5769C8.11517 29.5513 8.11517 29.4522 8.14452 29.2871C8.11517 29.4779 8.08949 29.5953 8.06381 29.6356C8.03446 29.676 7.95374 29.753 7.818 29.8631C7.87303 29.8924 7.96842 29.9034 8.10783 29.9034M7.85469 34.1518H7.97943C7.89505 34.0674 7.85469 33.961 7.85469 33.8216V34.1518ZM8.34997 16.0541V16.1788C8.34997 16.2339 8.33529 16.2632 8.30961 16.2632C8.25458 16.2375 8.20689 16.2008 8.16653 16.1605C8.12617 16.1201 8.07848 16.0724 8.02345 16.0174L8.63979 16.0981L8.34997 16.0578V16.0541ZM8.68015 26.9391L8.06014 26.8988L8.01978 27.229H8.34997L8.39032 26.8988L8.68015 26.9391ZM8.26925 40.2565L8.59944 40.6271C8.46003 40.6014 8.37198 40.5794 8.33162 40.5647C8.29127 40.55 8.26925 40.4766 8.26925 40.3372V40.2529V40.2565ZM8.39032 15.7239L8.68015 15.7643C8.70583 15.7386 8.7205 15.6799 8.7205 15.5992C8.7205 15.5185 8.68749 15.4341 8.61778 15.3534C8.54807 15.2727 8.48571 15.203 8.43068 15.1479H8.47103C8.58109 15.1736 8.73885 15.1406 8.94429 15.0452C9.14974 14.9498 9.3075 14.9131 9.41756 14.9425H9.7881C9.87248 15.2176 9.98621 15.4781 10.1403 15.7276C10.2907 15.9734 10.4228 16.2375 10.5328 16.509C10.287 16.399 9.96052 16.3659 9.56431 16.4063C9.16442 16.4466 8.85625 16.443 8.63612 16.3843C8.63612 16.2192 8.62145 16.1018 8.59577 16.0321C8.56642 15.9624 8.50038 15.8597 8.39032 15.7239ZM8.4747 26.0293L8.43435 26.3595H8.72417L8.76453 26.0293H8.4747ZM8.84524 17.5766C8.79021 17.5766 8.73518 17.5693 8.68015 17.5546C8.62512 17.5399 8.58476 17.5069 8.55541 17.4519V17.5766H8.84524ZM8.68015 29.9475V30.1529C8.68015 30.2373 8.71317 30.2777 8.78287 30.2777C8.85258 30.2777 8.91128 30.2923 8.96998 30.318L9.01033 29.9878L8.68015 29.9475ZM8.92595 37.8645L8.8856 38.4845L9.21578 38.5249L9.25613 37.9086L8.92595 37.8682V37.8645ZM9.34051 36.7089L9.30016 36.9987L9.63034 37.0391V36.874C9.63034 36.7639 9.53496 36.7089 9.34051 36.7089ZM9.42123 35.8027L9.38087 36.1329L9.71105 36.1733L9.75141 35.8431L9.42123 35.8027ZM9.62667 19.5174L9.9165 19.7668H9.62667V19.5174ZM9.6707 26.1137C9.72573 26.088 9.80644 26.0513 9.9165 26.011C10.0266 25.9706 10.1219 25.9486 10.2063 25.9486C10.2614 25.9486 10.3237 25.9779 10.3934 26.0293C10.4631 26.0843 10.5218 26.1394 10.5805 26.1944C10.4962 26.1394 10.4228 26.0513 10.3531 25.9266C10.2834 25.8018 10.265 25.6881 10.2907 25.5744C10.1513 25.7138 10.0559 25.7945 10.0009 25.8202C9.94585 25.8459 9.83579 25.8459 9.6707 25.8202V26.11V26.1137ZM11.0721 27.1849L11.1125 26.8548L11.4023 26.8951C11.1822 26.8951 11.0721 26.9905 11.0721 27.1849ZM12.7634 42.4798L12.5176 42.4394L12.4773 42.7696L12.7671 42.4798H12.7634ZM13.7503 24.6682V24.3784L13.4201 24.338L13.7503 24.6682ZM14.451 40.2125L14.1612 40.1721C14.1869 40.2015 14.2309 40.2529 14.2859 40.3372C14.341 40.4216 14.396 40.462 14.451 40.462V40.2162V40.2125ZM15.0307 25.6184C14.8913 25.4827 14.7959 25.3983 14.7408 25.3726C14.6858 25.3469 14.5758 25.3176 14.4107 25.2882V25.578C14.5758 25.578 14.6785 25.6074 14.7188 25.6624C14.7592 25.7175 14.8472 25.8128 14.9866 25.9523L15.027 25.6221L15.0307 25.6184ZM15.8525 25.6991C15.8781 25.534 15.9478 25.3836 16.0579 25.2442C16.168 25.1085 16.2377 24.9434 16.2634 24.7489H16.179C16.0689 24.7489 15.9882 24.804 15.9332 24.914C15.8781 25.0241 15.7828 25.0791 15.6433 25.0791L15.5626 25.6991H15.8525ZM17.4227 37.7398L16.8467 37.6994V38.0296H17.0521C17.2979 38.0296 17.4227 37.9342 17.4227 37.7398ZM17.7932 36.9143L17.5034 37.1198L18.1234 37.2042V36.9584L17.7932 36.918V36.9143ZM18.1637 39.9263L18.2041 39.6365C18.094 39.6659 17.984 39.6695 17.8739 39.6585C17.7639 39.6438 17.6685 39.6255 17.5841 39.5962C17.6941 39.7356 17.7675 39.8236 17.8115 39.864C17.8519 39.9043 17.9693 39.9263 18.1637 39.9263ZM17.9583 38.7303V38.8551H17.9987C18.0537 38.8551 18.094 38.8771 18.1234 38.9174C18.1491 38.9578 18.1931 38.9945 18.2481 39.0202L18.2885 38.7303H17.9583Z" fill="#111F43"/>
<path d="M27.0015 43.2648C26.6456 42.964 26.3154 42.964 26.0109 43.2648C25.8715 42.964 25.7762 42.7842 25.7211 42.7292C25.6661 42.6742 25.5414 42.6448 25.3506 42.6448V42.9346L25.0608 43.2648C24.8957 43.0997 24.826 43.019 24.8553 43.019C24.8847 43.019 24.7452 43.0997 24.4444 43.2648C24.4444 43.0997 24.4297 42.9897 24.4041 42.9346C24.3747 42.8796 24.2646 42.7842 24.0739 42.6448H24.7342V42.2743C24.5948 42.2743 24.4518 42.2596 24.3013 42.2339C24.1509 42.2082 24.0739 42.1238 24.0739 41.9881C24.1583 41.823 24.2059 41.6102 24.217 41.3498C24.2316 41.0893 24.217 40.8068 24.1766 40.506C24.1362 40.2051 24.0812 39.9006 24.0115 39.5998C23.9418 39.2989 23.8684 39.0238 23.784 38.7743C23.9198 38.7743 24.0042 38.7596 24.0299 38.734C24.0555 38.7083 24.0702 38.6239 24.0702 38.4882H24.4407C24.5765 38.2974 24.6609 38.1727 24.6865 38.1176C24.7122 38.0626 24.7269 37.9672 24.7269 37.8278C24.5875 37.8278 24.3967 37.7581 24.1509 37.6224C23.9051 37.4866 23.7804 37.3472 23.7804 37.2115L24.0702 36.8409C23.9601 36.8409 23.8794 36.6905 23.8244 36.386C23.7951 36.2759 23.784 36.1255 23.784 35.9311C23.9198 35.766 24.0042 35.6559 24.0299 35.6009C24.0555 35.5459 24.0702 35.4211 24.0702 35.2304H23.7804H24.4407C24.2463 34.9295 24.1362 34.7901 24.1106 34.8195C24.0812 34.8488 24.0702 34.7791 24.0702 34.614C23.9308 34.614 23.8978 34.5993 23.9675 34.5737C24.0372 34.548 24.0702 34.4636 24.0702 34.3279V33.9573H24.4407V33.6675C24.2463 33.5024 24.1362 33.3923 24.1106 33.3373C24.0812 33.2823 24.0702 33.1869 24.0702 33.0475V32.6769H23.7804V32.3871H24.4407C24.4407 32.222 24.3931 32.112 24.2977 32.0569C24.2023 32.0019 24.25 31.9065 24.4407 31.7671C24.2463 31.7671 24.0885 31.6974 23.9675 31.5617C23.8427 31.4259 23.7804 31.2608 23.7804 31.0664C23.9161 31.0664 23.9675 31.1141 23.9235 31.2095C23.8831 31.3048 23.9308 31.2572 24.0665 31.0664C23.9271 30.9306 23.8464 30.8353 23.8207 30.7766C23.7914 30.7215 23.7804 30.6115 23.7804 30.4464H24.0702C24.261 30.4464 24.371 30.4317 24.4004 30.406C24.4261 30.3803 24.4407 30.296 24.4407 30.1602C24.2463 30.1602 24.1106 30.2079 24.0299 30.3033C23.9455 30.3987 23.7547 30.4464 23.4539 30.4464V29.4998L23.784 29.1697C23.9198 29.3348 24.0775 29.4301 24.2573 29.4595C24.4371 29.4852 24.5948 29.4998 24.7306 29.4998V29.1697H24.4407C24.2463 29.0339 24.0885 28.9716 23.9675 28.9826C23.8427 28.9972 23.7804 28.8395 23.7804 28.5093C23.8061 28.5093 23.8501 28.4946 23.9051 28.4689C24.0152 28.4139 24.0702 28.3332 24.0702 28.2231C23.9308 28.058 23.7951 27.9883 23.6593 28.0177C23.5199 28.047 23.4539 27.893 23.4539 27.5628C23.619 27.5628 23.7143 27.5481 23.7437 27.5224C23.7694 27.4967 23.784 27.4124 23.784 27.2766C23.9198 27.416 23.9712 27.4967 23.9271 27.5224C23.8868 27.5518 23.9345 27.5628 24.0702 27.5628C24.261 27.427 24.371 27.3757 24.4004 27.4197C24.4261 27.4601 24.4407 27.4124 24.4407 27.2766V26.9061C24.2463 26.9061 24.0739 26.8914 23.9235 26.8657C23.773 26.84 23.6153 26.7557 23.4502 26.6199L23.7804 26.2897L24.0702 25.9999C23.9858 25.8348 23.9601 25.6697 23.9858 25.5046C24.0115 25.3395 24.0482 25.1818 24.0885 25.0314C24.1289 24.881 24.1583 24.7232 24.1729 24.5581C24.1876 24.393 24.1509 24.2279 24.0702 24.0628C24.2353 23.9785 24.3527 23.8977 24.4224 23.817C24.4921 23.7326 24.5471 23.6373 24.5875 23.5272C24.6278 23.4171 24.6755 23.2997 24.7306 23.175C24.7856 23.0503 24.8957 22.9072 25.0608 22.7421C25.0608 22.9072 25.0938 23.0246 25.1635 23.0906C25.2332 23.1603 25.3066 23.2154 25.3909 23.2557C25.4753 23.2961 25.5487 23.3438 25.6184 23.3988C25.6844 23.4538 25.7211 23.5639 25.7211 23.729V24.0592C25.8569 24.1986 25.9963 24.305 26.132 24.3893C26.2678 24.4737 26.3375 24.6792 26.3375 25.0094C26.4732 25.3139 26.4549 25.6147 26.2751 25.9155C26.0953 26.22 26.0073 26.4512 26.0073 26.6162C26.3081 26.6162 26.4879 26.6566 26.5429 26.741C26.5979 26.8217 26.6273 27.0968 26.6273 27.5664C26.4879 27.7315 26.3521 27.8966 26.2164 28.0617C26.077 28.2268 26.0109 28.3772 26.0109 28.5166H26.631C26.631 28.6817 26.6163 28.7991 26.5906 28.8652C26.5613 28.9349 26.5282 28.9899 26.4879 29.0303C26.4475 29.0706 26.4108 29.1183 26.3852 29.1733C26.3558 29.2284 26.3448 29.3384 26.3448 29.5035C26.4805 29.5035 26.5796 29.5659 26.6346 29.6906C26.6897 29.8154 26.8144 29.9731 27.0052 30.1639C26.8144 30.1639 26.7043 30.1786 26.675 30.2042C26.6456 30.2336 26.6346 30.3143 26.6346 30.45H27.6252C27.4601 30.3143 27.3647 30.2152 27.3353 30.1602C27.306 30.1052 27.295 29.9804 27.295 29.7897H27.9554C28.0911 29.9804 28.1755 30.0428 28.2012 29.9768C28.2268 29.9071 28.2415 29.9694 28.2415 30.1639C28.1021 30.1639 28.0214 30.1786 27.992 30.2042C27.9664 30.2336 27.9517 30.3143 27.9517 30.45H28.6121V30.1602L28.2415 29.7897C28.4323 29.7897 28.557 29.7273 28.6121 29.6026C28.6671 29.4778 28.7625 29.3348 28.9019 29.1697H28.6121C28.6121 29.0339 28.5497 28.9826 28.425 29.0266C28.3002 29.0669 28.2379 29.0192 28.2379 28.8835C28.568 28.8835 28.8615 28.7955 29.1257 28.6157C29.3862 28.4359 29.5182 28.1975 29.5182 27.893C29.3788 28.058 29.2284 28.0984 29.0633 28.0177C28.8982 27.937 28.7478 27.893 28.6084 27.893V27.5628C28.7441 27.427 28.8065 27.3426 28.7955 27.317C28.7808 27.2913 28.9276 27.2766 29.2284 27.2766H29.8888V26.9061H29.5182C29.709 26.7703 29.8191 26.6713 29.8484 26.6162C29.8741 26.5612 29.8888 26.4512 29.8888 26.2861H29.5182C29.8484 25.9559 30.2263 25.7651 30.6519 25.7101C31.0774 25.655 31.4553 25.6257 31.7855 25.6257V25.3359C31.9506 25.3359 32.0937 25.3212 32.2184 25.2955C32.3431 25.2698 32.4055 25.1708 32.4055 25.0057H32.1157C31.9506 25.0057 31.8552 24.991 31.8258 24.9653C31.7965 24.9397 31.7855 24.8553 31.7855 24.7159H32.1157C32.4459 24.7159 32.7687 24.6535 33.0842 24.5324C33.3997 24.4077 33.7226 24.3453 34.0527 24.3453C34.0527 24.0445 34.0161 23.85 33.95 23.7693C33.8803 23.6886 34.0124 23.5639 34.3426 23.3988C34.427 23.3144 34.5077 23.2887 34.592 23.3144C34.6728 23.3438 34.7498 23.3768 34.8195 23.4171C34.8892 23.4575 34.9626 23.4868 35.047 23.5015C35.1313 23.5162 35.2121 23.4795 35.2928 23.3988C35.2928 23.2631 35.2781 23.164 35.2524 23.109C35.2231 23.0539 35.1277 22.9292 34.9626 22.7384H35.2928C35.3735 22.6541 35.4652 22.6284 35.5606 22.654C35.656 22.6834 35.7514 22.7164 35.8504 22.7568C35.9458 22.7971 36.0485 22.8265 36.1586 22.8412C36.2686 22.8558 36.4044 22.8191 36.5695 22.7384C36.5695 23.0686 36.6942 23.3731 36.94 23.6446C37.1858 23.9198 37.3949 24.0555 37.56 24.0555C37.6958 23.8904 37.7948 23.795 37.8498 23.7657C37.9049 23.74 38.0296 23.7253 38.2204 23.7253V24.0555C38.136 24.1362 38.081 24.2463 38.0553 24.3857C38.0259 24.5251 38.0149 24.6755 38.0149 24.8406C38.0149 25.0057 38.0076 25.1561 37.9929 25.2955C37.9783 25.4349 37.9306 25.5413 37.8498 25.6257C37.6848 25.6257 37.5453 25.5853 37.439 25.501C37.3546 25.4459 37.2885 25.3909 37.2335 25.3359C37.2335 25.4753 37.2188 25.556 37.1932 25.5853C37.1638 25.611 37.0831 25.6257 36.9473 25.6257C37.0831 25.8165 37.2225 25.9889 37.3582 26.1393C37.494 26.2897 37.5637 26.4475 37.5637 26.6126L37.2335 26.9024C37.0941 26.7667 36.9363 26.6823 36.7602 26.6566C36.5805 26.6309 36.4227 26.6162 36.287 26.6162C35.9825 26.7557 35.6523 26.8364 35.2964 26.8621C34.9406 26.8914 34.526 26.9024 34.0601 26.9024V27.2729L33.6895 27.5628L33.3997 27.2729H33.0695V27.5628C32.9301 27.7279 32.8347 27.7829 32.7797 27.7279C32.7247 27.6728 32.5999 27.7279 32.4092 27.893H33.0695C32.9301 28.058 32.8347 28.2011 32.7797 28.3259C32.7247 28.4506 32.5999 28.513 32.4092 28.513C32.2698 28.3772 32.1193 28.2928 31.9542 28.2672C31.7892 28.2378 31.6387 28.2268 31.4993 28.2268C31.4186 28.2268 31.3489 28.2415 31.2939 28.2672C31.1838 28.3222 31.1288 28.4066 31.1288 28.513C31.1288 28.6781 31.1508 28.7955 31.1912 28.8615C31.2315 28.9312 31.2755 28.9862 31.3159 29.0266C31.3562 29.0669 31.3966 29.1146 31.4406 29.1697C31.481 29.2247 31.503 29.3348 31.503 29.4998H32.4092V29.7897C32.189 29.7897 32.046 29.797 31.9763 29.8117C31.9066 29.8264 31.8735 29.852 31.8735 29.8961C31.8735 29.9401 31.8809 29.9988 31.8955 30.0832C31.9102 30.1676 31.8735 30.2886 31.7928 30.4537H31.1325C31.1325 30.5087 31.1178 30.5638 31.0921 30.6188C31.0371 30.7289 30.9417 30.7839 30.8023 30.7839C30.8023 30.9233 30.7399 30.9673 30.6152 30.927C30.4904 30.8866 30.3474 30.9343 30.1823 31.0701C30.3474 31.2645 30.4574 31.3856 30.5124 31.4406C30.5675 31.4956 30.6629 31.6057 30.8023 31.7708H30.1823V32.0606C30.0429 32.0606 29.9475 32.1156 29.8924 32.2257C29.8374 32.3358 29.7127 32.3908 29.5219 32.3908C29.5219 32.2257 29.5696 32.1303 29.665 32.101C29.7604 32.0753 29.7127 32.0606 29.5219 32.0606C29.3825 32.2257 29.2321 32.2807 29.067 32.2257C28.9019 32.1707 28.7515 32.2257 28.6121 32.3908C28.6671 32.4458 28.7074 32.5008 28.7368 32.5559C28.7625 32.6366 28.7221 32.6806 28.6121 32.6806V33.0512L28.9019 33.341V33.6712H28.6121C28.5313 33.7262 28.4616 33.7959 28.4066 33.8766C28.2966 34.0417 28.2415 34.1921 28.2415 34.3315C28.3222 34.3315 28.3736 34.3095 28.3846 34.2692C28.3993 34.2288 28.4066 34.1995 28.4066 34.1848C28.4066 34.1701 28.4213 34.1701 28.447 34.1848C28.4726 34.1995 28.5313 34.2471 28.6121 34.3279C28.6121 34.4673 28.502 34.5737 28.2819 34.658C28.0618 34.7424 27.9517 34.9332 27.9517 35.234H28.2415C28.2415 35.0983 28.2562 35.0286 28.2819 35.0286C28.3076 35.0286 28.4176 35.0983 28.6121 35.234V35.6046H28.2415C28.2415 35.4138 28.1792 35.3661 28.0544 35.4615C27.9297 35.5569 27.7866 35.6046 27.6215 35.6046L27.2913 35.9347H28.2379C28.0984 36.0742 28.0031 36.1549 27.948 36.1806C27.893 36.2099 27.7829 36.2209 27.6178 36.2209V36.8409C27.4527 36.7052 27.3097 36.7565 27.1849 37.006C27.0602 37.2518 26.9978 37.527 26.9978 37.8315C27.1372 37.6664 27.218 37.6517 27.2436 37.7911C27.2693 37.9305 27.284 38.1616 27.284 38.4918C27.1446 38.6312 27.0015 38.8367 26.8511 39.1118C26.7007 39.387 26.6236 39.5924 26.6236 39.7319C26.8144 39.9226 26.9245 39.985 26.9538 39.9153C26.9795 39.8456 26.9942 39.908 26.9942 40.1024C26.8034 40.4069 26.752 40.7224 26.8511 41.0489C26.9465 41.3791 26.9942 41.6946 26.9942 41.9954C26.9942 42.1349 26.9318 42.2302 26.8071 42.2853C26.6823 42.3403 26.62 42.465 26.62 42.6558H26.9905V43.2758L27.0015 43.2648ZM24.7342 35.223H25.0644V34.9332C24.8993 35.0726 24.8039 35.1203 24.7746 35.0763C24.7452 35.0359 24.7342 35.0836 24.7342 35.2194M25.3506 35.5972H25.0608V35.9274H25.3506V35.5972ZM26.3411 33.9463H27.0015V33.6565H26.3411V33.9463ZM27.0015 31.059V31.4296H27.6215V31.059H27.0015ZM27.948 29.1623C27.7829 29.1623 27.6875 29.177 27.6582 29.2027C27.6288 29.232 27.6178 29.3274 27.6178 29.4925V29.1623H27.2877C27.4527 29.1623 27.5481 29.1477 27.5775 29.122C27.6032 29.0963 27.6178 29.0119 27.6178 28.8762C27.7829 29.0156 27.8783 29.0633 27.9077 29.0192C27.9333 28.9789 27.948 29.0266 27.948 29.1623ZM29.5146 33.33L29.2247 33.0401C29.3605 33.0401 29.4449 33.0548 29.4705 33.0805C29.4962 33.1098 29.5109 33.1906 29.5109 33.3263M29.5146 32.6696H30.5051V33.0401H29.5146V32.6696ZM30.1749 27.8856V29.1623V28.8725C30.34 28.8725 30.4354 28.8578 30.4648 28.8321C30.4904 28.8065 30.5051 28.6964 30.5051 28.502V28.2121L30.1749 27.8819V27.8856ZM30.1749 29.7823V30.4427C30.34 30.4427 30.4501 30.395 30.5051 30.2996C30.5601 30.2042 30.6555 30.1565 30.7949 30.1565V29.786H30.1749V29.7823ZM30.7949 26.2787V26.6089C30.7949 26.7483 30.8096 26.829 30.8353 26.8547C30.861 26.8841 30.96 26.8951 31.1251 26.8951C31.2902 26.8951 31.4003 26.8547 31.4553 26.7703C31.481 26.7153 31.4957 26.6603 31.4957 26.6052C31.3049 26.4402 31.1801 26.3448 31.1251 26.3154C31.0701 26.2897 30.96 26.2751 30.7949 26.2751M32.112 26.8951C31.9469 26.8951 31.8515 26.9097 31.8222 26.9354C31.7928 26.9648 31.7818 27.0748 31.7818 27.2656H32.112C32.112 27.0748 32.1267 26.9648 32.1524 26.9354C32.178 26.9097 32.2624 26.8951 32.3982 26.8951H32.1083H32.112ZM32.112 27.5554C31.9469 27.5554 31.8515 27.5701 31.8222 27.5958C31.7928 27.6251 31.7818 27.7205 31.7818 27.8856H32.4018V27.5554H32.112ZM32.112 29.1623C31.9469 29.1623 31.8515 29.1477 31.8222 29.122C31.7928 29.0963 31.7818 29.0119 31.7818 28.8762C31.7818 28.9862 31.8368 29.0669 31.9469 29.122C32.0019 29.1513 32.057 29.1623 32.112 29.1623ZM32.4018 28.8762C32.2624 28.8762 32.1817 28.8615 32.156 28.8358C32.1267 28.8101 32.1157 28.7001 32.1157 28.5056L32.4055 28.8762H32.4018ZM32.4018 24.3417V24.0518C32.5926 24.0518 32.7173 24.0665 32.7724 24.0922C32.8274 24.1215 32.9228 24.2022 33.0622 24.338H32.4018V24.3417ZM33.3924 25.6184C33.2823 25.6184 33.1723 25.633 33.0622 25.6587C32.8714 25.7137 32.7724 25.8238 32.7724 25.9889C32.9081 26.1283 33.0072 26.209 33.0622 26.2347C33.1172 26.2604 33.2273 26.2751 33.3924 26.2751L34.0527 25.6147C33.9684 25.6147 33.9133 25.6367 33.8877 25.6771C33.8583 25.7174 33.8473 25.7468 33.8473 25.7614C33.8473 25.7761 33.84 25.7761 33.8253 25.7614C33.8106 25.7468 33.7629 25.6991 33.6822 25.6184H33.3924ZM33.3924 23.7216H33.0622V23.3915H33.3924V23.7216ZM33.6785 23.3915C33.6785 23.5566 33.6639 23.6116 33.6382 23.5566C33.6125 23.5015 33.5281 23.5566 33.3924 23.7216V23.3915H33.6822H33.6785ZM35.2891 25.9889V26.2787C35.2891 26.4438 35.3661 26.5392 35.5166 26.5686C35.667 26.5979 35.8101 26.6089 35.9495 26.6089V26.2787C35.8101 26.2787 35.7147 26.231 35.6596 26.1356C35.6046 26.0403 35.4799 25.9926 35.2891 25.9926M35.9495 23.1016H35.6596C35.6596 23.241 35.6743 23.2887 35.7 23.2447C35.7257 23.2044 35.8101 23.252 35.9458 23.3878V23.098L35.9495 23.1016ZM37.8462 26.6089V26.2787C38.037 26.2787 38.0993 26.2934 38.0333 26.3191C37.9636 26.3484 38.0259 26.4438 38.2204 26.6089H37.8498H37.8462Z" fill="#111F43"/>
<path d="M57.54 31.059C57.7051 31.059 57.8005 31.1764 57.8298 31.4112C57.8555 31.646 57.8702 31.8148 57.8702 31.9248V32.2147C57.8702 32.2697 57.8005 32.2954 57.6647 32.2954H57.54V32.0055C57.54 32.1706 57.6171 32.3357 57.7675 32.5008C57.9179 32.6659 58.05 32.8017 58.16 32.9117C58.05 32.9667 57.9472 33.0291 57.8519 33.0988C57.7565 33.1685 57.7088 33.2713 57.7088 33.407C57.7088 33.5978 57.7711 33.7922 57.8959 33.983C58.0206 34.1774 58.1087 34.3425 58.1637 34.4783C58.1087 34.4783 58.0243 34.4709 57.9179 34.4562C57.8078 34.4416 57.7381 34.4085 57.7124 34.3535C57.6831 34.3792 57.6574 34.4012 57.6281 34.4159C57.6024 34.4306 57.573 34.4526 57.5437 34.4783C57.8188 34.7534 57.9546 35.0542 57.9546 35.3844C57.9546 35.6596 57.8665 35.8393 57.6868 35.9201C57.507 36.0044 57.4189 36.1659 57.4189 36.4153C57.4189 36.6061 57.4593 36.7859 57.5437 36.951C57.5437 37.0904 57.5363 37.2041 57.5217 37.2995C57.507 37.3949 57.4446 37.4866 57.3382 37.5673V37.8975C57.3933 37.8718 57.4483 37.8204 57.5033 37.7544C57.5584 37.6847 57.6134 37.6517 57.6684 37.6517C57.7234 37.6517 57.7711 37.681 57.8115 37.7361C57.8519 37.7911 57.8995 37.8461 57.9546 37.9012V38.5175C57.7895 38.7119 57.7198 38.8147 57.7491 38.8257C57.7748 38.8403 57.6391 38.8477 57.3382 38.8477V39.1375L57.6684 39.4677H57.9582C58.094 39.6071 58.1857 39.6658 58.2261 39.6548C58.2664 39.6401 58.2884 39.7318 58.2884 39.9226V40.0877C58.149 40.0877 58.061 40.1427 58.0206 40.2528C57.9803 40.3629 57.9582 40.4876 57.9582 40.6233V40.704H58.083C58.2224 40.704 58.2884 40.7994 58.2884 40.9939H57.6684C57.6684 41.0489 57.6464 41.1663 57.606 41.3461C57.5657 41.5258 57.518 41.7019 57.463 41.8817C57.4079 42.0615 57.3456 42.2192 57.2759 42.355C57.2062 42.4944 57.1328 42.5604 57.0484 42.5604V42.8906C56.7733 42.8906 56.5128 42.8356 56.2633 42.7255C56.0175 42.6154 55.7534 42.5604 55.4782 42.5604V42.2302L55.768 41.9404C55.6286 41.9404 55.5076 41.867 55.3975 41.7129C55.2874 41.5625 55.203 41.4304 55.1517 41.3204H55.4819V40.9902C55.2911 40.8251 55.159 40.682 55.0893 40.5573C55.0196 40.4326 54.8362 40.3702 54.5317 40.3702C54.5317 40.0694 54.6344 39.8125 54.8398 39.6071C55.0453 39.4016 55.148 39.1485 55.148 38.844C55.0086 38.7083 54.8582 38.5945 54.6931 38.5138C54.528 38.4331 54.3776 38.3231 54.2382 38.1836L55.1443 37.2775C55.0049 37.1417 54.9242 37.072 54.8985 37.072C54.8729 37.072 54.7885 37.0023 54.6527 36.8666L54.2822 37.3215C54.1978 37.1858 54.0841 37.1564 53.9337 37.2408C53.7833 37.3215 53.6365 37.3655 53.5008 37.3655C53.31 37.3655 53.1706 37.3949 53.0899 37.4462C53.0055 37.5013 52.8991 37.5966 52.7597 37.7361V38.0259C52.8954 38.1103 52.9871 38.1433 53.0275 38.1286C53.0679 38.1139 53.0899 38.0883 53.0899 38.0442V37.9195C53.0899 37.8791 53.1156 37.8865 53.1706 37.9415L53.2953 37.7361C53.4604 37.8168 53.5705 37.8791 53.6255 37.9232C53.6805 37.9635 53.7282 38.0185 53.7686 38.0883C53.8089 38.158 53.8493 38.2387 53.8933 38.3341C53.9337 38.4294 53.996 38.5615 54.0768 38.7266L53.6659 39.0164H53.2953V38.7266H52.9651V38.5615H52.9248C52.8698 38.5615 52.8918 38.5468 52.9871 38.5212C53.0825 38.4955 53.1192 38.4515 53.0899 38.3964C53.0899 38.5872 53.0018 38.7119 52.8221 38.767C52.6423 38.822 52.4845 38.9064 52.3488 39.0128H52.679L52.9688 39.343L53.3797 39.6328C53.2146 39.7172 53.0642 39.8199 52.9248 39.941C52.7854 40.0657 52.635 40.1684 52.4699 40.2491C52.4699 40.5536 52.4478 40.7627 52.4075 40.8875C52.3671 41.0122 52.2754 41.225 52.1397 41.5258H52.4699C52.4699 41.6909 52.4002 41.7753 52.2644 41.7753C52.18 41.7753 52.037 41.8303 51.8315 41.9404C51.6261 42.0505 51.494 42.0798 51.439 42.0248C51.439 42.2449 51.3839 42.377 51.2739 42.4173C51.1638 42.4577 51.1088 42.5898 51.1088 42.8099H51.2739V42.8502C51.2739 42.9309 51.3289 43.03 51.439 43.1401H50.819V42.8099H48.0161C48.1812 42.8099 48.2619 42.8906 48.2619 43.0557V43.1364H47.972V42.8062L47.4364 42.6411L47.0255 42.6008C47.0255 42.4357 47.0108 42.3403 46.9852 42.3109C46.9558 42.2852 46.8604 42.2706 46.6953 42.2706C46.6953 42.1055 46.5522 42.0101 46.2624 41.9807C45.9726 41.9551 45.7598 41.9404 45.6241 41.9404V41.6102H44.9233C44.9233 41.5552 44.8536 41.5001 44.7179 41.4451C44.5785 41.3901 44.5124 41.3351 44.5124 41.28C44.5124 41.0893 44.6078 40.9902 44.8023 40.9902C44.5822 40.8545 44.3694 40.7994 44.1639 40.8251C43.9585 40.8545 43.786 40.7994 43.6503 40.66C43.7347 40.605 43.7273 40.5353 43.6283 40.4546C43.5329 40.3702 43.4852 40.2748 43.4852 40.1647C43.4852 40.029 43.4559 39.8346 43.4008 39.5888C43.3458 39.343 43.2908 39.1485 43.2357 39.0128C42.8248 39.0128 42.6194 38.8073 42.6194 38.3928L42.3296 38.0222C42.4947 38.0222 42.6047 38.0002 42.6598 37.9599C42.7148 37.9195 42.8102 37.8425 42.9496 37.7324C42.6451 37.7324 42.4616 37.6627 42.3919 37.5269C42.3222 37.3912 42.1792 37.2518 41.959 37.116H41.6289V36.7859C41.7646 36.7859 41.959 36.7052 42.2048 36.5401C42.4506 36.375 42.6304 36.2502 42.7405 36.1695C42.5497 36.0888 42.4323 36.0264 42.3919 35.9824C42.3516 35.9384 42.3296 35.9127 42.3296 35.898C42.3296 35.8834 42.3002 35.876 42.2452 35.876H41.8343C41.8343 35.7109 41.7976 35.5385 41.7316 35.3624C41.6619 35.1826 41.5995 35.0249 41.5445 34.8891L41.8343 34.559C41.8893 34.614 41.9444 34.669 41.9994 34.7241C42.0544 34.7791 42.1095 34.8084 42.1645 34.8084C42.2195 34.8084 42.2672 34.7828 42.3076 34.7241C42.3479 34.669 42.3956 34.614 42.4506 34.559C42.2305 34.559 42.0251 34.4636 41.8306 34.2691C41.6399 34.0784 41.5408 33.8692 41.5408 33.6491H40.9208V32.9888H40.8401C40.675 32.9888 40.5906 32.9191 40.5906 32.7833V32.7026H40.3008V32.3724H40.4255C40.4805 32.3724 40.5209 32.3798 40.5503 32.3944C40.5759 32.4091 40.62 32.4164 40.675 32.4164C40.62 32.5265 40.5906 32.6219 40.5906 32.7063C40.6456 32.7356 40.7007 32.7686 40.7557 32.809C40.8107 32.8493 40.8658 32.8714 40.9208 32.8714V32.9961C41.0602 33.1355 41.1959 33.2236 41.3317 33.2639C41.4674 33.3043 41.6325 33.3263 41.827 33.3263V32.9961H41.207L41.6178 32.0899C41.7536 31.9542 41.86 31.7891 41.926 31.5947C41.9957 31.4039 42.0984 31.2388 42.2342 31.0994H41.9444C41.7793 31.0994 41.6545 31.1801 41.5738 31.3452C41.4931 31.5103 41.4087 31.6497 41.328 31.7561C41.328 31.536 41.218 31.4259 40.9978 31.4259L40.708 31.0957C40.8437 31.0957 40.9281 31.081 40.9538 31.0554C40.9795 31.0297 40.9942 30.9453 40.9942 30.8096C40.7997 30.3436 40.7043 29.9181 40.7043 29.5328H41.3243V29.243L40.9942 28.9128H40.3742C40.3998 28.8578 40.4512 28.7844 40.5172 28.6854C40.5869 28.59 40.62 28.5129 40.62 28.4579C40.62 28.4029 40.5833 28.3148 40.5172 28.1901C40.4475 28.0654 40.3998 27.9773 40.3742 27.9223H41.3243C41.4601 27.7865 41.6142 27.6838 41.7793 27.6141C41.9444 27.5444 42.0948 27.4417 42.2342 27.3059C42.3442 27.416 42.4323 27.4967 42.502 27.5517C42.5717 27.6068 42.6891 27.6361 42.8505 27.6361C42.8505 27.8012 42.8028 27.959 42.7074 28.1094C42.6121 28.2598 42.5644 28.4322 42.5644 28.623C42.6744 28.623 42.8028 28.6377 42.9569 28.6634C43.1073 28.689 43.1844 28.7734 43.1844 28.9092C43.2394 28.9642 43.2688 29.0192 43.2688 29.0743C43.2688 29.1586 43.2064 29.2393 43.0817 29.3201C42.9569 29.4044 42.8689 29.4705 42.8138 29.5255H42.8542C42.9899 29.6649 43.089 29.753 43.144 29.7933C43.1991 29.8337 43.3348 29.8557 43.5549 29.8557C43.5292 29.7713 43.4999 29.6906 43.4742 29.6062C43.4449 29.5255 43.4339 29.4411 43.4339 29.3604C43.4339 29.2247 43.4595 29.188 43.5182 29.2577C43.5733 29.3274 43.6686 29.3457 43.8081 29.3201C43.9438 29.2944 44.0355 29.3971 44.0759 29.6282C44.1162 29.863 44.1456 30.1382 44.1603 30.4537C44.1749 30.7692 44.2006 31.092 44.2446 31.4222C44.285 31.7524 44.362 31.9982 44.4721 32.1633C44.5528 32.2734 44.5675 32.3908 44.5124 32.5155C44.4574 32.6402 44.3804 32.7686 44.285 32.908C44.1896 33.0475 44.0942 33.1832 43.9952 33.3189C43.8998 33.4584 43.8521 33.5941 43.8521 33.7298V33.8105H44.1823C44.318 33.6748 44.4648 33.5904 44.6152 33.5647C44.7656 33.5391 44.938 33.5244 45.1288 33.5244V33.8142C44.9637 33.8142 44.8683 33.8913 44.839 34.0417C44.8096 34.1921 44.7986 34.3388 44.7986 34.4746C44.6592 34.4746 44.5785 34.4893 44.5491 34.5149C44.5235 34.5443 44.5088 34.625 44.5088 34.7607L44.5932 34.8011C44.5932 34.8561 44.6335 34.9112 44.7179 34.9662C44.8023 35.0212 44.8426 35.0909 44.8426 35.1716C44.8426 35.2523 44.8683 35.3221 44.927 35.3771C45.1178 35.3771 45.2168 35.4871 45.2168 35.7073C45.2976 35.7916 45.3416 35.8724 45.3416 35.9567C45.3416 36.0118 45.3196 36.0741 45.2792 36.1438C45.2389 36.2135 45.2168 36.2869 45.2168 36.3713H45.0921V36.4117C45.0921 36.496 45.0371 36.5914 44.927 36.7015C45.0921 36.7565 45.2425 36.8115 45.3819 36.8666C45.3269 36.8959 45.3342 36.9436 45.4039 37.0097C45.4736 37.0794 45.547 37.1601 45.6314 37.2555C45.7158 37.3508 45.7965 37.4426 45.8809 37.5233C45.9616 37.6077 46.0056 37.6627 46.0056 37.6884C46.0056 37.714 46.068 37.7764 46.1927 37.8755C46.3175 37.9709 46.4459 38.0809 46.5853 38.2057C46.721 38.3304 46.8604 38.4405 46.9962 38.5358C47.1319 38.6312 47.2016 38.6936 47.2016 38.7229C47.3667 38.888 47.5098 38.9834 47.6345 39.0128C47.7593 39.0421 47.8877 39.0495 48.0271 39.0348C48.1628 39.0201 48.3206 39.0018 48.5003 38.9724C48.6801 38.9467 48.9186 38.9577 49.2231 39.0128L50.4998 38.3928L50.9107 38.0222C51.1014 37.8571 51.3216 37.7397 51.571 37.6737C51.8168 37.604 51.9416 37.4206 51.9416 37.116C51.8865 37.061 51.8462 37.006 51.8168 36.951C51.9012 36.951 51.9416 36.8959 51.9416 36.7859C51.9673 36.7602 51.9966 36.7382 52.026 36.7235C52.0516 36.7088 52.081 36.6758 52.1103 36.6208C52.1103 36.485 52.2277 36.3456 52.4589 36.2099C52.6937 36.0741 52.8624 35.9641 52.9725 35.8797V35.5495C53.1082 35.5495 53.1596 35.5165 53.1156 35.4468C53.0752 35.3771 53.0935 35.3037 53.1779 35.2193L54.0034 34.3535C54.1134 34.2435 54.1538 34.1334 54.1281 34.0233C54.1024 33.9133 54.0511 33.7959 53.985 33.6711C53.9153 33.5464 53.875 33.4363 53.8603 33.341C53.8456 33.2456 53.9227 33.1685 54.0878 33.1135H53.7172C53.6072 33.0034 53.5521 32.9227 53.5521 32.8677C53.5521 32.8127 53.5778 32.7576 53.6365 32.7026C53.6952 32.6476 53.7172 32.5779 53.7172 32.4972C53.8566 32.277 53.985 32.0092 54.1098 31.6937C54.2345 31.3782 54.2969 31.081 54.2969 30.8059H53.9667C53.9667 30.6701 53.919 30.5564 53.8236 30.4757C53.7282 30.395 53.6805 30.2849 53.6805 30.1455C54.0364 29.9804 54.2308 29.7676 54.2565 29.5072C54.2822 29.2467 54.2969 28.9495 54.2969 28.6193C54.4877 28.4286 54.5867 28.2084 54.5867 27.959C54.5867 27.8489 54.572 27.7535 54.5463 27.6691C54.517 27.5884 54.506 27.4894 54.506 27.3793C54.506 27.2949 54.5317 27.1739 54.5904 27.0088C54.5904 26.7079 54.6931 26.4438 54.8985 26.2237C55.104 26.0036 55.2067 25.7431 55.2067 25.4386H54.9169C54.9169 25.2185 54.9389 24.991 54.9793 24.7599C55.0196 24.5251 55.0416 24.3013 55.0416 24.0775C55.0416 23.9931 55.0343 23.8977 55.0196 23.7877C55.0049 23.6776 54.9719 23.5969 54.9169 23.5419C55.0526 23.4061 55.2067 23.3144 55.3718 23.274C55.5369 23.2337 55.7167 23.2117 55.9074 23.2117H56.1569C56.1569 23.4318 56.2853 23.5419 56.5495 23.5419H57.1475C57.2318 23.7069 57.3199 23.8647 57.4153 24.0151C57.5107 24.1655 57.6281 24.3123 57.7675 24.448V24.3233C57.8482 24.4077 57.9582 24.448 58.0977 24.448H57.1511C57.1511 24.6425 57.1291 24.7635 57.0888 24.8186C57.0484 24.8736 56.9567 24.969 56.8209 25.1084H57.7711V25.4386C57.7711 25.6844 57.7088 25.8018 57.584 25.7908C57.4593 25.7761 57.3162 25.7688 57.1511 25.7688C57.2869 26.0696 57.4263 26.4144 57.562 26.7997C57.7014 27.1849 57.7675 27.5554 57.7675 27.9113H58.3838V28.2818C58.0536 28.4763 57.8078 28.579 57.6427 28.59C57.4776 28.6047 57.2025 28.612 56.8173 28.612C56.843 28.667 56.887 28.7441 56.942 28.8395C56.997 28.9348 57.0521 28.9825 57.1071 28.9825L57.1475 28.8982C57.2025 29.0082 57.2318 29.1036 57.2318 29.188C57.2318 29.243 57.2172 29.2834 57.1915 29.3127C57.1621 29.3421 57.1511 29.3824 57.1511 29.4375C57.1511 29.4925 57.1841 29.5622 57.2539 29.6429C57.3236 29.7273 57.3823 29.7933 57.441 29.8484H57.1511V30.4684L57.562 31.0443L57.54 31.059ZM40.3888 31.4296H40.719C40.609 31.3195 40.5539 31.2241 40.5539 31.1397V31.0994H40.3888V31.4296ZM40.7594 26.1943C40.785 26.2787 40.8217 26.3374 40.8621 26.3814C40.9024 26.4218 40.9648 26.4585 41.0492 26.4842C41.1336 26.5135 41.229 26.5795 41.339 26.6896H41.959V27.0198C41.849 26.9097 41.7536 26.829 41.6692 26.7703C41.6399 26.7703 41.6289 26.8253 41.6289 26.9354V27.0198H41.339V27.3096H41.959C41.959 27.1739 41.9737 27.0895 41.9994 27.0638C42.0251 27.0381 42.1094 27.0235 42.2452 27.0235C42.2452 26.8584 42.2599 26.763 42.2855 26.7336C42.3112 26.7079 42.4103 26.6933 42.5754 26.6933C42.5754 26.8327 42.5827 26.9684 42.5974 27.1042C42.6121 27.2436 42.7001 27.3096 42.8652 27.3096C42.8652 27.0895 42.8285 26.884 42.7625 26.6896C42.6928 26.4988 42.5203 26.3998 42.2489 26.3998V25.7798C42.3039 25.8348 42.3589 25.8825 42.414 25.9228C42.469 25.9632 42.524 25.9852 42.579 25.9852C42.6341 25.9852 42.6818 25.9632 42.7221 25.9228C42.7625 25.8825 42.8102 25.8348 42.8652 25.7798V25.6147C42.8102 25.644 42.7551 25.6293 42.7001 25.5743C42.6451 25.5193 42.6047 25.4789 42.5754 25.4496C42.5754 25.3689 42.5974 25.3138 42.6377 25.2845C42.6781 25.2588 42.7001 25.2148 42.7001 25.1598C42.7001 25.1047 42.6854 25.0424 42.6598 24.9726C42.6304 24.9029 42.6047 24.8406 42.5754 24.7855H43.1954V24.4554H42.5754V23.5492C42.3846 23.5492 42.2672 23.5639 42.2232 23.5895C42.1828 23.6189 42.0911 23.6996 41.9554 23.8353C42.0361 23.9161 42.0801 24.0261 42.0801 24.1655C42.0801 24.2756 42.0397 24.371 41.9554 24.4554C41.816 24.4554 41.7132 24.4077 41.6472 24.3123C41.5775 24.2169 41.4748 24.1692 41.339 24.1692V25.1157H41.0088C41.0088 25.2551 41.0015 25.3432 40.9868 25.3835C40.9722 25.4239 40.8951 25.4459 40.7594 25.4459H41.6252C41.5151 25.5853 41.4197 25.6734 41.3354 25.7137C41.251 25.7541 41.1299 25.7761 40.9648 25.7761H40.719C40.719 25.9669 40.7337 26.1063 40.7594 26.187M40.8034 27.3096C40.9428 27.3096 41.0088 27.2399 41.0088 27.1042V27.0235C40.8988 27.1335 40.8437 27.2142 40.8437 27.2693V27.3096H40.719H40.7997H40.8034ZM41.9554 27.926H42.2452V28.2965H41.6252C41.6252 28.0507 41.7352 27.926 41.9554 27.926ZM42.2452 25.1231H41.9554V24.7929H42.2452V25.1231ZM42.4506 32.7099C42.4506 32.4898 42.3553 32.3798 42.1608 32.3798L42.5717 32.0899C42.6818 32.0899 42.7221 32.1229 42.6964 32.1927C42.6671 32.2624 42.6964 32.3247 42.7808 32.3798L42.4506 32.7099ZM42.5754 29.5365V29.8667H42.535C42.3442 29.8667 42.2452 29.7713 42.2452 29.5769V29.5365H42.5754ZM42.8652 29.2467H42.5754V28.9165H42.8652V29.2467ZM43.2541 30.7729C42.9936 30.7472 42.8615 30.6481 42.8615 30.483H42.5717V30.1529C42.7918 30.1529 43.0046 30.2079 43.2101 30.3179C43.4155 30.428 43.6283 30.483 43.8484 30.483V30.8132C43.709 30.8132 43.5109 30.7985 43.2504 30.7729M42.7808 34.2765V33.9463H42.9056C43.0707 33.9463 43.155 34.0417 43.155 34.2361V34.2765H42.7845H42.7808ZM43.2357 34.1114C43.2357 33.9756 43.2211 33.8913 43.1954 33.8656C43.166 33.8399 43.0853 33.8252 42.9496 33.8252V33.5354H43.2394V34.1114H43.2357ZM42.9459 36.0485C43.0266 35.9677 43.089 35.9127 43.133 35.8834C43.1734 35.8577 43.2027 35.8357 43.2174 35.821C43.2321 35.8063 43.2394 35.7733 43.2394 35.7183V35.3881H44.2703V35.7183C44.2703 35.7733 44.2777 35.8063 44.2923 35.821C44.307 35.8357 44.34 35.8577 44.3951 35.8834C44.4501 35.9127 44.5198 35.9677 44.6005 36.0485C44.4904 36.0485 44.3877 36.0778 44.2923 36.1328C44.1969 36.1879 44.0942 36.2135 43.9842 36.2135C43.9291 36.2135 43.8044 36.1989 43.6136 36.1732C43.4228 36.1475 43.2981 36.1035 43.2431 36.0485H42.9533H42.9459ZM44.3877 32.5852V32.9154H43.7677V32.5852H44.3877ZM43.8521 34.7717V34.4819H44.0172C43.9878 34.537 44.0025 34.592 44.0575 34.647C44.1126 34.702 44.1529 34.7424 44.1823 34.7717H43.8521ZM44.883 36.8739H44.9233L45.7488 37.4095L44.5932 36.7088C44.7032 36.8189 44.7986 36.8739 44.883 36.8739ZM46.0386 39.6364V39.2659C46.1487 39.2659 46.2844 39.2586 46.4495 39.2439C46.6146 39.2292 46.6953 39.1412 46.6953 38.9761L46.8604 39.2659C46.776 39.3209 46.6953 39.376 46.6146 39.431C46.5339 39.486 46.4495 39.5557 46.3688 39.6364H46.0386ZM48.8415 41.8633C48.6764 41.8633 48.592 41.7826 48.592 41.6175V41.5332H48.8819V41.8633H48.8415ZM49.5019 43.1401V43.4299L49.8321 43.1401H49.5019ZM50.1623 41.5332V41.203L50.4924 41.5332H50.1623ZM54.4069 35.7183C54.3226 35.7183 54.2272 35.7733 54.1171 35.8834C54.1171 35.6632 54.1868 35.5532 54.3226 35.5532H54.528L54.4033 35.7183H54.4069ZM54.5317 39.4714H54.6968C54.5867 39.3906 54.5317 39.2806 54.5317 39.1412V39.4714ZM54.9022 27.926H54.7371C54.8472 27.8416 54.9022 27.7462 54.9022 27.6361V27.926L55.192 27.6361H55.8524L55.5222 27.926H54.9022ZM55.192 28.6267V28.9165L54.9022 28.6267H55.192ZM55.4819 36.9546V37.2848H55.7717C55.7974 37.2591 55.8341 37.2224 55.8744 37.1821C55.9148 37.1417 55.9625 37.1197 56.0175 37.1197C55.9074 37.1197 55.8267 37.0647 55.7717 36.9546H55.4819Z" fill="#111F43"/>
<path d="M83.463 18.0204L83.4263 17.9067C82.9127 16.3328 83.7748 14.6452 85.345 14.1353C86.8309 13.651 88.4304 14.4068 89.0321 15.8192L89.0798 15.9329C89.7218 17.4555 89.0027 19.2164 87.4802 19.8585C85.9504 20.5041 84.1931 19.7851 83.5547 18.2589C83.5217 18.1855 83.4923 18.1012 83.4667 18.0241" fill="#F79333"/>
<path d="M76.0047 7.74444L75.9093 7.67474C74.8344 6.91532 74.5812 5.42949 75.3406 4.35456C76.0597 3.33833 77.4355 3.05951 78.4921 3.67585L78.5948 3.73455C79.7321 4.40226 80.11 5.8624 79.4459 6.9997C78.7782 8.13699 77.3144 8.51854 76.1771 7.85084C76.1184 7.81782 76.0597 7.77746 76.0047 7.74078" fill="#F79333"/>
<path d="M63.5238 3.85562H63.4027C62.4268 3.8813 61.616 3.1072 61.5904 2.12766C61.5683 1.20682 62.2654 0.429052 63.1679 0.326328L63.2853 0.311654C64.2612 0.205261 65.138 0.909652 65.2444 1.88553C65.3508 2.85773 64.6464 3.73822 63.6705 3.84461C63.6191 3.84828 63.5678 3.85195 63.5201 3.85195" fill="#F79333"/>
<path d="M50.819 8.35343L50.7236 8.4268C50.2173 8.82302 49.4909 8.73497 49.0947 8.22869C48.7168 7.75176 48.7829 7.06938 49.2158 6.66215L49.3038 6.57777C49.7771 6.13753 50.5145 6.16688 50.9511 6.63647C51.3877 7.10974 51.362 7.84715 50.8887 8.28372C50.863 8.30573 50.841 8.32775 50.8153 8.34609" fill="#F79333"/>
<path d="M43.1256 19.8622L43.0963 19.976C43.0156 20.2695 42.7148 20.4382 42.4213 20.3612C42.1461 20.2841 41.9773 20.009 42.0287 19.7302L42.0507 19.6128C42.1058 19.3119 42.3956 19.1138 42.6964 19.1688C42.9972 19.2239 43.1954 19.5137 43.1403 19.8145C43.1403 19.8292 43.133 19.8476 43.1293 19.8622" fill="#F79333"/>
<path d="M67.6362 37.1417C67.7683 38.4514 68.2636 39.3649 69.1257 39.8896C69.9879 40.4142 71.0224 40.6747 72.2258 40.6747C72.644 40.6747 73.1209 40.6416 73.6566 40.5756C74.1922 40.5096 74.6948 40.3848 75.1681 40.2014C75.6377 40.018 76.0229 39.7502 76.3237 39.398C76.6246 39.0458 76.7603 38.5798 76.7346 38.0039C76.7089 37.4279 76.4998 36.9583 76.1073 36.5914C75.7147 36.2245 75.2121 35.931 74.5958 35.7072C73.9794 35.4835 73.2824 35.2964 72.4973 35.1386C71.7122 34.9808 70.9124 34.8121 70.1053 34.6286C69.2688 34.4452 68.4617 34.2214 67.6913 33.9609C66.9208 33.7005 66.2275 33.3483 65.6111 32.9007C64.9984 32.4568 64.5068 31.8881 64.14 31.1947C63.7731 30.5014 63.5897 29.6429 63.5897 28.623C63.5897 27.526 63.8575 26.6015 64.3931 25.8568C64.9287 25.112 65.6111 24.5104 66.4329 24.0518C67.2584 23.5932 68.1719 23.274 69.1808 23.0906C70.186 22.9071 71.1472 22.8154 72.0644 22.8154C73.1099 22.8154 74.1115 22.9255 75.0654 23.1493C76.0192 23.3731 76.8814 23.7326 77.6555 24.2279C78.4259 24.7268 79.0679 25.3725 79.5779 26.1686C80.0878 26.9684 80.407 27.9296 80.5391 29.0522H75.8688C75.6597 27.981 75.1681 27.2619 74.3976 26.895C73.6272 26.5282 72.7431 26.3447 71.7488 26.3447C71.4333 26.3447 71.0628 26.3704 70.6299 26.4218C70.197 26.4731 69.7934 26.5722 69.4119 26.7153C69.0303 26.8583 68.7112 27.0675 68.4507 27.3426C68.1902 27.6178 68.0581 27.9773 68.0581 28.4212C68.0581 28.9715 68.2489 29.4154 68.6268 29.7566C69.0047 30.0978 69.5036 30.3803 70.1163 30.6004C70.7289 30.8242 71.4297 31.0113 72.2148 31.1691C72.9999 31.3268 73.8107 31.4956 74.6471 31.679C75.4579 31.8624 76.2577 32.0862 77.0391 32.3467C77.8242 32.6072 78.5213 32.9631 79.1376 33.407C79.754 33.8509 80.2492 34.4159 80.6308 35.0946C81.0087 35.777 81.1994 36.6134 81.1994 37.6076C81.1994 38.811 80.9243 39.8309 80.374 40.6673C79.8237 41.5038 79.1119 42.1862 78.2351 42.7071C77.3583 43.2318 76.3824 43.6096 75.3112 43.8444C74.2399 44.0792 73.1796 44.1966 72.1341 44.1966C70.8537 44.1966 69.6687 44.0535 68.5828 43.7637C67.4968 43.4776 66.554 43.0373 65.7579 42.4503C64.9581 41.8633 64.3307 41.1296 63.8758 40.2528C63.4172 39.3759 63.1751 38.3377 63.1494 37.1344H67.6216L67.6362 37.1417Z" fill="#F79333"/>
<path d="M89.2158 23.3694H84.7437V43.6573H89.2158V23.3694Z" fill="#F79333"/>
<path d="M92.0405 23.3693H95.4157V17.2866H99.8879V23.3693H103.931V26.7042H99.8879V37.5342C99.8879 38.0038 99.9062 38.411 99.9466 38.7522C99.9869 39.0934 100.079 39.3795 100.222 39.6143C100.365 39.8491 100.581 40.0252 100.871 40.1463C101.157 40.2637 101.55 40.3224 102.049 40.3224C102.364 40.3224 102.676 40.3151 102.992 40.3041C103.303 40.2894 103.619 40.2454 103.934 40.1646V43.6169C103.439 43.6683 102.955 43.7196 102.482 43.7746C102.012 43.826 101.528 43.8517 101.029 43.8517C99.8512 43.8517 98.9047 43.7416 98.1856 43.5178C97.4665 43.2977 96.9052 42.9675 96.498 42.5383C96.0944 42.1054 95.8193 41.5624 95.6762 40.9094C95.5331 40.2564 95.4487 39.5079 95.4194 38.6715V26.7042H92.0442V23.3693H92.0405Z" fill="#F79333"/>
<path d="M104.91 23.3694H109.815L115.113 38.5138H115.19L120.33 23.3694H125L117.112 44.7542C116.745 45.6714 116.386 46.5446 116.034 47.3847C115.681 48.2212 115.249 48.9586 114.739 49.6006C114.229 50.2426 113.594 50.7526 112.835 51.1304C112.075 51.5083 111.107 51.6991 109.933 51.6991C108.887 51.6991 107.852 51.6221 106.833 51.4643V47.6965C107.199 47.7479 107.552 47.8066 107.893 47.8726C108.23 47.9387 108.586 47.9717 108.953 47.9717C109.474 47.9717 109.907 47.9057 110.248 47.7773C110.589 47.6452 110.868 47.4544 111.092 47.2086C111.312 46.9591 111.503 46.6656 111.661 46.3245C111.818 45.9833 111.961 45.5907 112.093 45.1468L112.603 43.5766L104.914 23.3694H104.91Z" fill="#F79333"/>
</svg>
